<svg xmlns="http://www.w3.org/2000/svg" viewBox="0 0 500 500"><g id="freepik--background-complete--inject-5"><rect x="312.82" y="40.91" width="136.06" height="207.55" transform="translate(761.71 289.38) rotate(180)" style="fill:#ebebeb"></rect><rect x="391.37" y="49.23" width="57.51" height="92.32" transform="translate(840.26 190.77) rotate(180)" style="fill:#fff"></rect><rect x="327.58" y="49.23" width="57.51" height="92.32" transform="translate(712.66 190.77) rotate(180)" style="fill:#fff"></rect><rect x="391.37" y="147.83" width="57.51" height="92.32" transform="translate(840.26 387.98) rotate(180)" style="fill:#fff"></rect><rect x="327.58" y="147.83" width="57.51" height="92.32" transform="translate(712.66 387.98) rotate(180)" style="fill:#fff"></rect><polygon points="365.31 40.91 312.82 40.91 312.82 337.85 343.2 337.85 322 186.75 365.31 40.91" style="fill:#dbdbdb"></polygon><polygon points="356.22 48.94 347.9 83.45 339.43 117.93 322.48 186.87 322.49 186.7 330.33 258.75 334.25 294.78 338 330.82 333.76 294.83 329.67 258.82 321.5 186.81 321.49 186.72 321.52 186.63 338.79 117.77 347.43 83.34 356.22 48.94" style="fill:#ebebeb"></polygon><polygon points="315.95 55.03 316.19 84.81 316.33 114.59 316.45 174.15 316.33 233.7 316.19 263.48 315.95 293.26 315.7 263.48 315.56 233.7 315.45 174.15 315.56 114.59 315.7 84.81 315.95 55.03" style="fill:#ebebeb"></polygon><path d="M325.75,60.61l-1.62,31.65-1.77,31.65-3.56,63.28v0c.35,11.76.57,23.51.87,35.26l.83,35.26.83,35.26L322,328.2,320.83,293l-1-35.26-1-35.25c-.32-11.76-.71-23.51-1-35.26v0l3.87-63.27,2-31.63Z" style="fill:#ebebeb"></path><path d="M332.59,323.63l-3.44-34.16-3.33-34.18c-2.13-22.79-4.34-45.57-6.4-68.37v-.13l9.73-53.21L334.1,107l5-26.58-4.6,26.66-4.67,26.64L320.37,187v-.13c2.18,22.79,4.19,45.59,6.29,68.39l3,34.2Z" style="fill:#ebebeb"></path><rect x="312.82" y="184.26" width="11.85" height="6.92" transform="translate(637.5 375.45) rotate(180)" style="fill:#dbdbdb"></rect><polygon points="396.4 40.91 448.88 40.91 448.88 337.85 418.5 337.85 439.71 186.75 396.4 40.91" style="fill:#dbdbdb"></polygon><polygon points="405.49 48.94 414.28 83.34 422.92 117.77 440.19 186.63 440.21 186.72 440.2 186.81 432.04 258.82 427.95 294.83 423.71 330.82 427.46 294.78 431.38 258.75 439.22 186.7 439.23 186.87 422.28 117.93 413.81 83.45 405.49 48.94" style="fill:#ebebeb"></polygon><polygon points="445.76 55.03 446 84.81 446.14 114.59 446.26 174.15 446.15 233.7 446.01 263.48 445.76 293.26 445.52 263.48 445.38 233.7 445.26 174.15 445.38 114.59 445.52 84.81 445.76 55.03" style="fill:#ebebeb"></polygon><path d="M436,60.61,438,92.24,440,123.87l3.88,63.27v0c-.26,11.75-.65,23.5-1,35.26l-1,35.25-1,35.26-1.17,35.25.67-35.27.83-35.26.83-35.26c.29-11.75.52-23.5.87-35.26v0l-3.56-63.28-1.77-31.65Z" style="fill:#ebebeb"></path><path d="M429.12,323.63,432,289.42l3-34.2c2.1-22.8,4.11-45.6,6.29-68.39V187l-9.48-53.25-4.67-26.64L422.6,80.41l5,26.58,4.94,26.59,9.73,53.21v.13c-2,22.8-4.27,45.58-6.4,68.37l-3.32,34.18Z" style="fill:#ebebeb"></path><rect x="437.03" y="184.26" width="11.85" height="6.92" style="fill:#dbdbdb"></rect><path d="M90.4,299.46a43.71,43.71,0,0,1-2.14,16.69,45.72,45.72,0,0,1-3.14,7.21c-1.57,3-3.19,5.85-3.12,9.23.31.24-.8.12-.81-.21-8.57-5.79-20-7.61-26.25-16.49-3-4.2-4.22-9.34-4.62-14.41-.43-5.52-.19-11.58,1.63-16.85,1.53-4.45,4.53-8.63,9-10.53s10.35-1.32,14.88.48C85.58,278.47,89.73,289.66,90.4,299.46Z" style="fill:#ebebeb"></path><path d="M89.88,366.17c-.91-4.17-1.81-8.34-2.76-12.5-1.84-8.16-3.79-16.3-6-24.36q-2-7.24-4.29-14.37a82.71,82.71,0,0,1,1.74-8.59c1-3.41,2.36-6.69,3.64-10,.08-.2-.25-.34-.35-.15-2.38,4.53-5.47,10.33-6,15.87-1.79-5.38-3.73-10.71-5.86-16a66.19,66.19,0,0,1,1.39-12.82.16.16,0,0,0-.3-.08,45.83,45.83,0,0,0-1.75,11.27c-1.63-4-3.37-7.87-5.25-11.73-.17-.35-.65-.05-.51.29,2.87,6.75,5.48,13.61,7.9,20.55a43.31,43.31,0,0,0-13.43-9.22c-.22-.1-.41.21-.19.32a51.37,51.37,0,0,1,14.43,11.24q2.58,7.62,4.88,15.32C72,315.31,64.61,311.1,57.34,308.59c-.25-.08-.35.3-.11.39,8.39,3.25,14.69,8.64,20.78,15q.9,3.12,1.76,6.24Q83,342.06,85.89,354q1.38,5.73,2.7,11.47c.94,4.12,1.6,8.44,2.93,12.44.13.39.8.35.75-.1A116.61,116.61,0,0,0,89.88,366.17Z" style="fill:#dbdbdb"></path><path d="M80.74,290.82a22.24,22.24,0,0,0-3.85,7.8c0,.07.09.13.12.05a70.74,70.74,0,0,1,4.11-7.62C81.28,290.8,80.91,290.6,80.74,290.82Z" style="fill:#dbdbdb"></path><path d="M63.3,308.27a23.52,23.52,0,0,0-7.83-3.33c-.07,0-.13.09,0,.12,1.25.64,2.58,1.12,3.85,1.72s2.51,1.32,3.8,1.89A.23.23,0,0,0,63.3,308.27Z" style="fill:#dbdbdb"></path><path d="M60.53,285.45a16.49,16.49,0,0,0-2.46-1.8.14.14,0,0,0-.17.22,16.83,16.83,0,0,0,2.42,1.85C60.48,285.83,60.69,285.57,60.53,285.45Z" style="fill:#dbdbdb"></path><path d="M118.11,316.79c-6.55,1.67-13.12,3.19-19.67,4.84-.56.15-10.68-21.24-6.31-31.88,4-9.86,12.7-17,22.81-20,4.68-1.39,10.41-2.49,15.25-1.22,4.3,1.13,7.23,4.8,8.48,8.94,1.7,5.62.8,12.21-.46,17.83a31.19,31.19,0,0,1-6.94,14.3C127.68,313.54,123.21,315.5,118.11,316.79Z" style="fill:#ebebeb"></path><path d="M128.26,297.24a85.79,85.79,0,0,1-12.88,4.5,52.89,52.89,0,0,0-8.59,2.74c3-6,6.21-11.84,9.62-17.62,4.23-1.05,8.7-2.77,12-5.6a.18.18,0,0,0-.22-.28c-3.54,2.3-7.4,3.61-11.28,5.11.92-1.55,1.85-3.11,2.8-4.66.26-.43-.33-.89-.64-.48a137.3,137.3,0,0,0-9.8,15.09,70.71,70.71,0,0,1-.11-14.18.1.1,0,0,0-.19,0,47.2,47.2,0,0,0-.45,15.55c-2.44,4.44-4.69,9-6.73,13.63-.63-2.85-1.48-5.67-2-8.54A38.8,38.8,0,0,1,99.3,290c0-.12-.16-.14-.19,0a44,44,0,0,0,1.82,23c-1.19,2.78-2.33,5.58-3.39,8.39A169.82,169.82,0,0,0,87.2,365.89a.28.28,0,0,0,.55.06,222.58,222.58,0,0,1,11.37-44c2.1-5.57,4.47-11,7-16.24,3.87-1,7.73-2.37,11.54-3.52a36.1,36.1,0,0,0,10.69-4.73A.14.14,0,0,0,128.26,297.24Z" style="fill:#dbdbdb"></path><path d="M134.53,291.39c-4,1.25-7.83,3.07-11.84,4.35-.19.06-.1.35.09.32,4.22-.7,8.42-1.83,11.9-4.44C134.81,291.52,134.67,291.34,134.53,291.39Z" style="fill:#dbdbdb"></path><path d="M102.56,281.59c0-.21-.25-.34-.32-.13-1.23,3.61-2.13,7.45-1.22,11.22,0,.15.27.16.28,0C101.64,288.92,101.57,285.26,102.56,281.59Z" style="fill:#dbdbdb"></path><path d="M119.24,273.8a9.6,9.6,0,0,0-2,6.14c0,.14.22.23.26.06.56-2.07,1.44-3.94,2.16-5.94A.27.27,0,0,0,119.24,273.8Z" style="fill:#dbdbdb"></path><path d="M138.71,331.72c-1.9,6-6.41,14.35-13.55,14.42-4.63,0-9.29-.51-13.94-.57-5-.08-10-.07-14.91.23-.41,0,.6-14.89,12.54-22.15,3.35-2,7.44-2.68,11.24-3.5a52.1,52.1,0,0,1,13.28-1.38c2.74.11,5,.69,6,3.5S139.62,328.85,138.71,331.72Z" style="fill:#ebebeb"></path><path d="M133.57,324.18c-2.9.74-5.83,1.6-8.74,2.53a31.29,31.29,0,0,1,2.4-2.35c1.26-1,2.63-1.87,4-2.78.11-.08,0-.3-.1-.24a16.37,16.37,0,0,0-7.05,5.61c-3.63,1.17-7.23,2.46-10.69,3.88a39.68,39.68,0,0,0-6.84,3.61,27,27,0,0,1,2.47-4.31c1.59-2.06,3.73-3.2,5.81-4.66a.19.19,0,0,0-.19-.32,17,17,0,0,0-9.31,10.11,38.82,38.82,0,0,0-6.78,6.15c-7.91,9-14.13,20.92-14.15,33.11,0,.29.46.38.52.07A67.57,67.57,0,0,1,100,342.21q.86-1,1.74-1.89a54.71,54.71,0,0,1,6.53-.49c2.54,0,5.07.38,7.6.58,4.17.34,8.78.39,12.54-1.71.17-.09.06-.38-.13-.31-8.38,3.05-17.18-.82-25.59,1a39.4,39.4,0,0,1,12.4-8l.77-.31c5.38.65,11.07,2.05,16.31.3.15-.05.09-.29-.07-.24-5.07,1.26-9.92-.33-14.92-.58,5.44-2.12,11-3.81,16.45-5.91C134.06,324.47,134.07,324.05,133.57,324.18Z" style="fill:#dbdbdb"></path><path d="M136,329.48a73.45,73.45,0,0,1-7.84.59c-.06,0-.08.1,0,.11a16.3,16.3,0,0,0,7.9-.5A.1.1,0,0,0,136,329.48Z" style="fill:#dbdbdb"></path><path d="M118.25,324.31a12.62,12.62,0,0,0-3.87,2.7c-.14.12,0,.36.19.25.66-.48,1.34-.93,2-1.37a19.38,19.38,0,0,0,1.89-1.19C118.66,324.55,118.47,324.24,118.25,324.31Z" style="fill:#dbdbdb"></path><path d="M76.07,343.71c.08.2-.2.38-.31.17h0a.28.28,0,0,1-.19.12A119.08,119.08,0,0,1,61,346.54c-3.95.35-8.51.57-12-1.72-4.69-3.11-7.77-11.42-5.24-16.69,3-6.27,12-2.87,16.56-.64A33.22,33.22,0,0,1,76.07,343.71Z" style="fill:#ebebeb"></path><path d="M79.57,346.61A46.58,46.58,0,0,0,70.86,340,29.91,29.91,0,0,0,62,331c-.17-.11-.32.16-.16.28a39.67,39.67,0,0,1,7.44,7.83,81.66,81.66,0,0,0-10.93-5,14.6,14.6,0,0,0-5.87-5.89s-.11.05-.06.08a24.12,24.12,0,0,1,5.3,5.57c-2.22-.83-4.46-1.6-6.71-2.34-.2-.07-.27.24-.08.31,4,1.56,8.07,3.21,12,5.1a46.18,46.18,0,0,1-14.56,0,.11.11,0,0,0-.06.21,28.78,28.78,0,0,0,15.46.23,73.85,73.85,0,0,1,7.33,4.1,18.41,18.41,0,0,0-5.93.49A45.11,45.11,0,0,1,54.8,343.1c-.13,0-.17.21,0,.23,6,1,11.75-1.7,17.74-1a47.55,47.55,0,0,1,6.23,5.09,47.07,47.07,0,0,1,9.1,12.83c2.52,5.13,3.88,10.57,5.92,15.87a.19.19,0,0,0,.37-.1C92.39,365.58,87.18,354.05,79.57,346.61Z" style="fill:#dbdbdb"></path><path d="M61.35,332.28a6.83,6.83,0,0,0-1.54-1.88A6.13,6.13,0,0,0,58,329.06c-.06,0-.09.06-.06.1.5.57,1.19,1,1.72,1.52s1,1.17,1.53,1.7A.09.09,0,0,0,61.35,332.28Z" style="fill:#dbdbdb"></path><path d="M51.39,335.52c-.89-.23-1.84-.21-2.75-.4a22.18,22.18,0,0,1-2.67-.8.11.11,0,0,0-.09.2,8.87,8.87,0,0,0,5.51,1.28A.15.15,0,0,0,51.39,335.52Z" style="fill:#dbdbdb"></path><polygon points="108.3 357.67 107.31 368.86 103.97 406.63 74.39 406.63 70.21 368.86 68.98 357.67 108.3 357.67" style="fill:#c7c7c7"></polygon><polygon points="108.3 357.67 107.31 368.86 70.21 368.86 68.98 357.67 108.3 357.67" style="fill:#a6a6a6"></polygon><rect x="66.05" y="354.62" width="45.18" height="9.08" style="fill:#c7c7c7"></rect><rect x="250" y="99.11" width="31.89" height="7.74" style="fill:#ebebeb"></rect><rect x="250" y="99.11" width="31.89" height="7.74" transform="translate(368.92 -162.97) rotate(90)" style="fill:#ebebeb"></rect><rect x="75.39" y="118.03" width="31.89" height="7.74" style="fill:#ebebeb"></rect><circle cx="91.34" cy="109.82" r="3.87" style="fill:#ebebeb"></circle><circle cx="91.34" cy="133.97" r="3.87" style="fill:#ebebeb"></circle><rect x="149.48" y="62.9" width="31.89" height="7.74" transform="translate(1.24 136.53) rotate(-45)" style="fill:#ebebeb"></rect><rect x="149.48" y="62.9" width="31.89" height="7.74" transform="translate(95.66 -97.41) rotate(45)" style="fill:#ebebeb"></rect><rect x="53.25" y="197.72" width="31.89" height="7.74" style="fill:#ebebeb"></rect><rect x="53.25" y="183.35" width="31.89" height="7.74" style="fill:#ebebeb"></rect></g><g id="freepik--Shadow--inject-5"><path d="M448.31,439.23c0,11.28-88.78,20.42-198.31,20.42S51.69,450.51,51.69,439.23,140.47,418.81,250,418.81,448.31,428,448.31,439.23Z" style="fill:#ebebeb"></path></g><g id="freepik--Floor--inject-5"><polygon points="46.98 406.44 97.74 406.2 148.49 406.11 250 405.95 351.51 406.11 402.26 406.2 453.01 406.44 402.26 406.69 351.51 406.78 250 406.94 148.49 406.78 97.74 406.69 46.98 406.44" style="fill:#263238"></polygon></g><g id="freepik--Calculator--inject-5"><rect x="222.8" y="125.12" width="202.05" height="314.12" style="fill:#ABE7B8"></rect><rect x="208.16" y="125.12" width="202.05" height="314.12" style="fill:#ABE7B8"></rect><rect x="208.16" y="125.12" width="202.05" height="314.12" style="opacity:0.1"></rect><rect x="223.72" y="205.26" width="38.85" height="38.85" style="fill:#fff"></rect><rect x="267.74" y="205.26" width="38.85" height="38.85" style="fill:#fff"></rect><rect x="311.77" y="205.26" width="38.85" height="38.85" style="fill:#ABE7B8"></rect><rect x="355.79" y="205.26" width="38.85" height="38.85" style="fill:#ABE7B8"></rect><rect x="223.72" y="249.82" width="38.85" height="38.85" style="fill:#37474f"></rect><rect x="267.74" y="249.82" width="38.85" height="38.85" style="fill:#37474f"></rect><rect x="311.77" y="249.82" width="38.85" height="38.85" style="fill:#37474f"></rect><rect x="355.79" y="250.1" width="38.85" height="38.85" style="fill:#fff"></rect><rect x="223.72" y="294.38" width="38.85" height="38.85" style="fill:#37474f"></rect><rect x="267.74" y="294.38" width="38.85" height="38.85" style="fill:#37474f"></rect><rect x="311.77" y="294.38" width="38.85" height="38.85" style="fill:#37474f"></rect><rect x="355.79" y="294.38" width="38.85" height="38.85" style="fill:#fff"></rect><rect x="223.72" y="338.94" width="38.85" height="38.85" style="fill:#37474f"></rect><rect x="267.74" y="338.94" width="38.85" height="38.85" style="fill:#37474f"></rect><rect x="311.77" y="338.94" width="38.85" height="38.85" style="fill:#37474f"></rect><rect x="355.79" y="338.94" width="38.85" height="38.85" style="fill:#fff"></rect><rect x="223.72" y="383.5" width="38.85" height="38.85" style="fill:#37474f"></rect><rect x="267.74" y="383.5" width="38.85" height="38.85" style="fill:#37474f"></rect><rect x="311.77" y="383.5" width="38.85" height="38.85" style="fill:#fff"></rect><rect x="355.79" y="383.5" width="38.85" height="38.85" style="fill:#fff"></rect><path d="M237.37,220.91v0a2.73,2.73,0,0,1,2.69-2.89,2.69,2.69,0,0,1,2.65,2.86v0a2.74,2.74,0,0,1-2.69,2.9A2.7,2.7,0,0,1,237.37,220.91Zm3.9,0v0c0-.9-.52-1.65-1.25-1.65s-1.21.75-1.21,1.62v0c0,.93.52,1.65,1.25,1.65S241.27,221.78,241.27,220.91Zm-2,7.55,7.43-10.14a.6.6,0,0,1,.55-.29.63.63,0,0,1,.64.63.75.75,0,0,1-.14.42l-7.43,10.14a.67.67,0,0,1-.56.29.62.62,0,0,1-.63-.63A.73.73,0,0,1,239.23,228.46Zm5-1.76v0a2.73,2.73,0,0,1,2.69-2.89,2.7,2.7,0,0,1,2.65,2.86v0a2.74,2.74,0,0,1-2.68,2.9A2.71,2.71,0,0,1,244.21,226.7Zm3.9,0v0c0-.9-.52-1.65-1.24-1.65s-1.22.75-1.22,1.62v0c0,.93.52,1.65,1.25,1.65S248.11,227.57,248.11,226.7Z" style="fill:#37474f"></path><path d="M321.35,223.61a5.94,5.94,0,0,1,5.93-5.83,6,6,0,0,1,3.74,1.27.93.93,0,0,1-1.13,1.47,4.06,4.06,0,0,0-2.61-.89,4.29,4.29,0,0,0-2.91,1.16,4,4,0,0,0-1.18,2.82,3.91,3.91,0,0,0,1.18,2.81,4.3,4.3,0,0,0,2.91,1.17,4.08,4.08,0,0,0,2.61-.89,1,1,0,0,1,1.29.17,1,1,0,0,1-.16,1.3,6.06,6.06,0,0,1-3.74,1.26A5.91,5.91,0,0,1,321.35,223.61Z" style="fill:#37474f"></path><path d="M334.32,228.54V219a.87.87,0,0,1,.89-.89h5.28a.9.9,0,0,1,0,1.79h-4.38v3h3.77a.9.9,0,0,1,0,1.8h-3.77v3h4.38a.92.92,0,0,1,.89.91.91.91,0,0,1-.89.89h-5.24s0,0,0,0v0A.88.88,0,0,1,334.32,228.54Z" style="fill:#37474f"></path><path d="M370.17,223.61a5.94,5.94,0,0,1,5.93-5.83,6,6,0,0,1,3.74,1.27.93.93,0,0,1-1.13,1.47,4.08,4.08,0,0,0-2.61-.89,4.29,4.29,0,0,0-2.91,1.16,4,4,0,0,0-1.18,2.82,3.91,3.91,0,0,0,1.18,2.81,4.3,4.3,0,0,0,2.91,1.17,4.1,4.1,0,0,0,2.61-.89,1,1,0,0,1,1.29.17,1,1,0,0,1-.16,1.3,6.09,6.09,0,0,1-3.74,1.26A5.91,5.91,0,0,1,370.17,223.61Z" style="fill:#37474f"></path><path d="M246.69,264.78l-4,9.56a.85.85,0,0,1-.82.54.86.86,0,0,1-.34-.07.91.91,0,0,1-.49-1.16l3.5-8.3h-4.18a.92.92,0,0,1-.89-.91.89.89,0,0,1,.89-.89h5.55a.47.47,0,0,1,.16,0,1.4,1.4,0,0,1,.34.13l0,.05s.05,0,.06.06.05.05.07.07,0,.05,0,.06l0,.08.06.09s0,.06,0,.08a.19.19,0,0,1,0,.08,1,1,0,0,1,0,.35A.5.5,0,0,1,246.69,264.78Z" style="fill:#fff"></path><path d="M290.7,271a3.87,3.87,0,1,1-6-3.22,2.67,2.67,0,1,1,4.81-1.6,2.62,2.62,0,0,1-.54,1.6A3.88,3.88,0,0,1,290.7,271Zm-1.77,0a2.11,2.11,0,0,0-2.08-2.11,2.13,2.13,0,0,0-2.12,2.11,2.11,2.11,0,0,0,2.12,2.08A2.08,2.08,0,0,0,288.93,271Zm-3-4.82a.91.91,0,1,0,1.82,0,.9.9,0,0,0-.89-.89A.91.91,0,0,0,285.92,266.21Z" style="fill:#fff"></path><path d="M327.07,267.47a3.93,3.93,0,0,1,7.83-.4l0,0c0,.3,0,.61,0,.92a9.3,9.3,0,0,1-.57,3.31,5.64,5.64,0,0,1-2.09,2.77,4.59,4.59,0,0,1-2.42.76.9.9,0,0,1-.94-.86.92.92,0,0,1,.87-.93,3,3,0,0,0,1.52-.46,3.12,3.12,0,0,0,1-1.13,2.74,2.74,0,0,0,.21-.42,3.8,3.8,0,0,1-1.55.32A3.91,3.91,0,0,1,327.07,267.47Zm1.8,0a2.13,2.13,0,1,0,4.25,0,2.13,2.13,0,0,0-4.25,0Z" style="fill:#fff"></path><path d="M371.74,269.53a1,1,0,0,1,1-1h5a1,1,0,0,1,0,1.93h-5A1,1,0,0,1,371.74,269.53Z" style="fill:#37474f"></path><path d="M247.48,316.15a.89.89,0,0,1-.91.89h-.16v1.23a.89.89,0,0,1-1.78,0V317h-5.09a.77.77,0,0,1-.55-.2.86.86,0,0,1-.15-1.24l6-7.44s0,0,0,0l0-.07A.18.18,0,0,0,245,308s0,0,.06-.05,0,0,.1,0,0-.05.06-.05l.1,0a.1.1,0,0,0,.07,0h.27a.12.12,0,0,0,.08,0s.07,0,.1,0l.06,0,.09.06s0,0,.08.05,0,0,0,0,.05,0,.05,0l.07.07,0,.06a.3.3,0,0,1,.07.08.11.11,0,0,0,0,.07.19.19,0,0,1,0,.09s0,.05,0,.07a.13.13,0,0,1,0,.09s0,.05,0,.09v6.58h.16A.9.9,0,0,1,247.48,316.15Zm-2.85-4.89-3.22,4h3.22Z" style="fill:#fff"></path><path d="M289.3,312.3a4,4,0,0,1,1.18,2.85A4.07,4.07,0,0,1,289.3,318a4,4,0,0,1-2.83,1.18h0a3.92,3.92,0,0,1-2.81-1.18.9.9,0,0,1,0-1.3.92.92,0,0,1,1.29,0,2.16,2.16,0,0,0,3.09,0,2.19,2.19,0,0,0,.65-1.53,2.19,2.19,0,0,0-2.18-2.19,2.19,2.19,0,0,0-1.56.63.91.91,0,0,1-1.29,0c-.07-.06-.11-.14-.18-.21s0-.05,0-.05a.12.12,0,0,0,0-.08c0-.05,0-.08,0-.11s0,0,0,0a.66.66,0,0,1,0-.28l.49-4.19a.93.93,0,0,1,.4-.64s.05,0,.06,0,0,0,.05,0a1,1,0,0,1,.42-.1h4.78a.92.92,0,1,1,0,1.83h-4l-.2,1.6a4.53,4.53,0,0,1,1.09-.14A4,4,0,0,1,289.3,312.3Z" style="fill:#fff"></path><path d="M334.92,315.24a3.93,3.93,0,0,1-7.83.41s0,0,0,0c0-.3,0-.61,0-.92a9.52,9.52,0,0,1,.56-3.31,5.69,5.69,0,0,1,2.09-2.77,4.63,4.63,0,0,1,2.43-.76.89.89,0,0,1,.93.86.94.94,0,0,1-.87.94,2.9,2.9,0,0,0-1.52.45,3.4,3.4,0,0,0-1,1.13c-.08.13-.14.28-.21.42a3.8,3.8,0,0,1,1.55-.32A3.93,3.93,0,0,1,334.92,315.24Zm-1.8,0a2.13,2.13,0,1,0-4.25,0,2.13,2.13,0,0,0,4.25,0Z" style="fill:#fff"></path><path d="M372.08,314.3a.84.84,0,0,1,0-1.68h6.54a.84.84,0,1,1,0,1.68Zm4.38-4.25v.08a1.12,1.12,0,0,1-2.23,0v-.08a1.12,1.12,0,0,1,2.23,0Zm0,6.74v.09a1.12,1.12,0,0,1-2.23,0v-.09a1.12,1.12,0,0,1,2.23,0Z" style="fill:#37474f"></path><path d="M244.85,353.28v9.55a.9.9,0,0,1-.91.89.87.87,0,0,1-.88-.89v-8l-.65.37a.8.8,0,0,1-.45.13.9.9,0,0,1-.47-1.66l2-1.19.06,0s.05,0,.08-.05h.1s.05,0,.06,0a.25.25,0,0,1,.12,0h.17a.1.1,0,0,0,.07,0c.05,0,.06,0,.1,0a.08.08,0,0,1,.06,0s.07.05.1.05l.06.05.07.05a.12.12,0,0,1,.06.06l0,.06.07.07v0s0,0,0,.05,0,.05,0,.08,0,.07,0,.08a.45.45,0,0,0,0,.08.17.17,0,0,0,0,.12Z" style="fill:#fff"></path><path d="M290.76,362.83a.88.88,0,0,1-.89.89h-5.76a.88.88,0,0,1-.66-.29.9.9,0,0,1,.05-1.27l4.79-4.33a2.09,2.09,0,0,0-1.41-3.64,2.17,2.17,0,0,0-1.41.53l-.5.46a.9.9,0,0,1-1.2-1.33l.5-.45a3.85,3.85,0,0,1,2.61-1,3.9,3.9,0,0,1,2.88,1.28,3.82,3.82,0,0,1,1,2.61,3.9,3.9,0,0,1-1.28,2.88l-3.05,2.76h3.44A.9.9,0,0,1,290.76,362.83Z" style="fill:#fff"></path><path d="M333.44,356.84a3.93,3.93,0,0,1,1.18,2.83,4,4,0,0,1-6.85,2.85.91.91,0,1,1,1.29-1.29,2.15,2.15,0,0,0,1.54.63,2.23,2.23,0,0,0,1.55-.63,2.17,2.17,0,0,0,.65-1.56,2.09,2.09,0,0,0-.65-1.53,2.17,2.17,0,0,0-1.54-.65.79.79,0,0,1-.66-.29s0,0,0,0a.91.91,0,0,1,0-1.29l1.65-1.68h-2.62a.92.92,0,0,1-.91-.93.9.9,0,0,1,.91-.9h4.77a.91.91,0,0,1,.81,1.34,1.88,1.88,0,0,1-.16.23l-2,2.1A3.55,3.55,0,0,1,333.44,356.84Z" style="fill:#fff"></path><path d="M378,357.05,376,359.71l1.92,2.67a.84.84,0,0,1-.16,1.16.93.93,0,0,1-.52.18,1.06,1.06,0,0,1-.71-.36L375,361.15l-1.62,2.21a.91.91,0,0,1-.67.36.88.88,0,0,1-.51-.18.81.81,0,0,1-.18-1.16l1.94-2.67L372,357.05a.79.79,0,0,1,.18-1.14.84.84,0,0,1,1.18.17l1.62,2.17,1.61-2.17a.91.91,0,0,1,1.23-.17A.82.82,0,0,1,378,357.05Z" style="fill:#37474f"></path><path d="M243.81,406a1.22,1.22,0,0,1,1.21,1.21,1.21,1.21,0,0,1-1.21,1.2,1.19,1.19,0,0,1-1.2-1.2A1.21,1.21,0,0,1,243.81,406Z" style="fill:#fff"></path><path d="M282.48,402.62a7,7,0,0,1,1.1-3.87,3.41,3.41,0,0,1,6,0,7.46,7.46,0,0,1,0,7.73,3.4,3.4,0,0,1-6,0A7,7,0,0,1,282.48,402.62Zm6.39,0a5.37,5.37,0,0,0-.78-2.88,1.87,1.87,0,0,0-1.5-1,2,2,0,0,0-1.54,1,5.67,5.67,0,0,0,0,5.74,2,2,0,0,0,1.54,1,1.91,1.91,0,0,0,1.5-1A5.35,5.35,0,0,0,288.87,402.62Z" style="fill:#fff"></path><path d="M327.76,401.42a1,1,0,0,1,1-.94h5a.93.93,0,0,1,.93.94.91.91,0,0,1-.93.93h-5A.94.94,0,0,1,327.76,401.42Zm0,3a1,1,0,0,1,1-1h5a1,1,0,0,1,0,1.93h-5A1,1,0,0,1,327.76,404.41Z" style="fill:#37474f"></path><path d="M374.43,403.47h-2.3a.89.89,0,0,1-.89-.89.91.91,0,0,1,.89-.89h2.3v-2.24a.91.91,0,0,1,.92-.93.93.93,0,0,1,.92.93v2.24h2.3a.91.91,0,0,1,.89.89.89.89,0,0,1-.89.89h-2.3v2.25a.92.92,0,0,1-.92.92.91.91,0,0,1-.92-.92Z" style="fill:#37474f"></path><path d="M292.73,219.2a.69.69,0,0,1-.69.69h-2c-.85,2.35-3,8.5-3.47,10.24a1.45,1.45,0,0,1-.35.55.75.75,0,0,1-.47.18.86.86,0,0,1-.65-.28s-2.16-2.11-2.83-2.86c-1-1.06-.55-1.56-.41-1.65a.82.82,0,0,1,.39-.13,1.26,1.26,0,0,1,.61.23l.7.73c.2.22.39.41.58.59l.55.56.62.62c.51-1.64,2.79-8.08,3.4-9.69h0a1.06,1.06,0,0,1,.19-.23.71.71,0,0,1,.52-.24H292A.69.69,0,0,1,292.73,219.2Z" style="fill:#37474f"></path><rect x="223.72" y="141.74" width="170.93" height="40.9" style="fill:#455a64"></rect><path d="M317.48,154v15.93a1.5,1.5,0,0,1-1.51,1.48,1.46,1.46,0,0,1-1.48-1.48V156.65l-1.08.63a1.39,1.39,0,0,1-.76.21,1.51,1.51,0,0,1-.78-2.78l3.32-2s.08,0,.11-.05.08-.06.13-.08l.16,0a.15.15,0,0,1,.11,0,.42.42,0,0,1,.19,0h.3s.08,0,.1,0a.29.29,0,0,1,.17.06s.08,0,.1,0,.11.08.17.08a.21.21,0,0,0,.1.08s.09.06.11.09.08.08.11.1a.52.52,0,0,1,.08.11l.11.11,0,.05s0,.06,0,.09.06.08.06.13,0,.11,0,.13a1.06,1.06,0,0,0,0,.14.25.25,0,0,0,.05.19Z" style="fill:#fff"></path><path d="M333.11,169.94a1.46,1.46,0,0,1-1.48,1.48H322a1.44,1.44,0,0,1-1.11-.49,1.49,1.49,0,0,1,.08-2.1l8-7.24a3.35,3.35,0,0,0,1.14-2.59,3.53,3.53,0,0,0-.89-2.35,3.45,3.45,0,0,0-2.6-1.13,3.55,3.55,0,0,0-2.34.89l-.84.76a1.48,1.48,0,0,1-2.11-.11,1.5,1.5,0,0,1,.11-2.11l.84-.75a6.34,6.34,0,0,1,4.34-1.68,6.49,6.49,0,0,1,4.81,2.14,6.36,6.36,0,0,1,1.67,4.34,6.51,6.51,0,0,1-2.13,4.81l-5.1,4.61h5.75A1.49,1.49,0,0,1,333.11,169.94Z" style="fill:#fff"></path><path d="M347.07,160a6.55,6.55,0,0,1,2,4.72,6.7,6.7,0,0,1-11.44,4.75,1.52,1.52,0,0,1,0-2.16,1.54,1.54,0,0,1,2.16,0,3.6,3.6,0,0,0,2.56,1.06,3.71,3.71,0,0,0,2.59-1.06,3.6,3.6,0,0,0,1.08-2.59,3.5,3.5,0,0,0-1.08-2.56,3.58,3.58,0,0,0-2.56-1.08,1.35,1.35,0,0,1-1.11-.49s0,0,0,0a1.52,1.52,0,0,1,0-2.15l2.75-2.81h-4.37a1.53,1.53,0,0,1,0-3.05h8A1.51,1.51,0,0,1,349,154a1.61,1.61,0,0,1-.19.73,2,2,0,0,1-.27.38l-3.4,3.51A6,6,0,0,1,347.07,160Z" style="fill:#fff"></path><path d="M367.75,166.4a1.48,1.48,0,0,1-1.51,1.48H366v2.06a1.49,1.49,0,0,1-3,0v-2.06h-8.5a1.35,1.35,0,0,1-.92-.32,1.45,1.45,0,0,1-.24-2.08l10-12.42s0,0,.05-.05a.35.35,0,0,0,.08-.11.26.26,0,0,0,.14-.08s.08,0,.1-.08a.31.31,0,0,1,.17-.05c0-.06.05-.08.1-.08s.08,0,.17-.06.08,0,.1,0h.46a.24.24,0,0,0,.14,0s.11,0,.16.06l.11,0c.05.06.11.08.13.11l.14.08s0,0,0,0,.09,0,.09.05l.1.11a.76.76,0,0,1,.08.11.54.54,0,0,1,.11.13.17.17,0,0,0,.06.11c0,.06,0,.08.05.16s0,.08,0,.11a.39.39,0,0,1,0,.16c0,.06,0,.08,0,.14v11h.27A1.5,1.5,0,0,1,367.75,166.4ZM363,158.25l-5.37,6.66H363Z" style="fill:#fff"></path><path d="M381.2,160a6.61,6.61,0,0,1,2,4.75,6.69,6.69,0,0,1-2,4.72,6.61,6.61,0,0,1-4.72,2h-.06a6.53,6.53,0,0,1-4.69-2,1.47,1.47,0,0,1,0-2.16,1.53,1.53,0,0,1,2.15,0,3.62,3.62,0,0,0,5.16,0,3.68,3.68,0,0,0,1.08-2.56,3.64,3.64,0,0,0-3.64-3.65,3.65,3.65,0,0,0-2.6,1,1.51,1.51,0,0,1-2.15,0c-.11-.1-.19-.24-.3-.35s0-.08,0-.08a.17.17,0,0,0,0-.13c0-.08,0-.14,0-.19s0,0,0-.06a1.69,1.69,0,0,1,0-.45l.81-7a1.68,1.68,0,0,1,.68-1.08c.05,0,.08,0,.11,0s.05,0,.08-.05a1.45,1.45,0,0,1,.7-.17h8a1.53,1.53,0,1,1,0,3.06H375l-.32,2.67a7,7,0,0,1,1.81-.25A6.58,6.58,0,0,1,381.2,160Z" style="fill:#fff"></path></g></svg>