<svg id="visual" viewBox="0 0 900 450" width="900" height="450" xmlns="http://www.w3.org/2000/svg" xmlns:xlink="http://www.w3.org/1999/xlink" version="1.1"><rect x="0" y="0" width="900" height="450" fill="#f1f1f1"></rect><path d="M0 220L21.5 231C43 242 86 264 128.8 268.2C171.7 272.3 214.3 258.7 257.2 231.5C300 204.3 343 163.7 385.8 174.3C428.7 185 471.3 247 514.2 279.5C557 312 600 315 642.8 308.2C685.7 301.3 728.3 284.7 771.2 257.3C814 230 857 192 878.5 173L900 154L900 451L878.5 451C857 451 814 451 771.2 451C728.3 451 685.7 451 642.8 451C600 451 557 451 514.2 451C471.3 451 428.7 451 385.8 451C343 451 300 451 257.2 451C214.3 451 171.7 451 128.8 451C86 451 43 451 21.5 451L0 451Z" fill="#a8dadc" stroke-linecap="round" stroke-linejoin="miter"></path></svg>