<svg xmlns="http://www.w3.org/2000/svg" viewBox="0 0 500 500"><g id="freepik--Floor--inject-19"><path id="freepik--floor--inject-19" d="M77.66,239.79c-95.18,55-95.17,144,0,199s249.49,54.95,344.67,0,95.17-144,0-199S172.84,184.84,77.66,239.79Z" style="fill:#fafafa"></path></g><g id="freepik--Plants--inject-19"><g id="freepik--plants--inject-19"><path d="M460.41,321.59l9.22,5.33a75.85,75.85,0,0,1,0-11.48c2.79-20.15,10.64-26.8,14.37-36.61,3.93-10.32-.86-13.65-7.09-11.79-5.55,1.66-13.59,9.87-16.12,24.91A111.66,111.66,0,0,0,460.41,321.59Z" style="fill:#457B9D"></path><path d="M460.41,321.59l9.22,5.33a75.85,75.85,0,0,1,0-11.48c2.79-20.15,10.64-26.8,14.37-36.61,3.93-10.32-.86-13.65-7.09-11.79-5.55,1.66-13.59,9.87-16.12,24.91A111.66,111.66,0,0,0,460.41,321.59Z" style="fill:#fff;opacity:0.65"></path><path d="M465.29,324.42l.93.53c-3.3-23.5,4.73-43.87,12.66-52.29a.41.41,0,0,0,0-.57.42.42,0,0,0-.58,0C470.37,280.53,462.34,301,465.29,324.42Z" style="fill:#fff"></path><path d="M467,325.42l5.19,3h0c2.76-8.12,5.59-11.38,9.11-16.72,3.2-4.86,6.93-7.87,8.91-11.29,1.75-3,3.07-6.82.46-9.12-4.14-3.67-9.56.21-13.28,4.39C474.22,299.31,467.75,308.94,467,325.42Z" style="fill:#457B9D"></path><path d="M467,325.42l5.19,3h0c2.76-8.12,5.59-11.38,9.11-16.72,3.2-4.86,6.93-7.87,8.91-11.29,1.75-3,3.07-6.82.46-9.12-4.14-3.67-9.56.21-13.28,4.39C474.22,299.31,467.75,308.94,467,325.42Z" style="fill:#fff;opacity:0.30000000000000004"></path><path d="M469.17,326.65l.75.44c2.18-12.85,10.9-27.71,16.33-31.22a.42.42,0,0,0,.12-.57.41.41,0,0,0-.57-.13C480.18,298.82,471.48,313.61,469.17,326.65Z" style="fill:#fff"></path></g><g id="freepik--plants--inject-19"><path d="M40.58,335l-9.22,5.32c.12-3.29.41-8.19-.05-11.48C28.53,308.67,20.68,302,17,292.22c-3.93-10.33.86-13.66,7.09-11.8,5.55,1.66,13.59,9.88,16.12,24.91C41.84,315.34,41.54,326.2,40.58,335Z" style="fill:#457B9D"></path><path d="M40.58,335l-9.22,5.32c.12-3.29.41-8.19-.05-11.48C28.53,308.67,20.68,302,17,292.22c-3.93-10.33.86-13.66,7.09-11.8,5.55,1.66,13.59,9.88,16.12,24.91C41.84,315.34,41.54,326.2,40.58,335Z" style="fill:#fff;opacity:0.65"></path><path d="M35.69,337.8l-.92.53C38.07,314.84,30,294.46,22.11,286a.39.39,0,0,1,0-.56.4.4,0,0,1,.57,0C30.62,293.91,38.65,314.42,35.69,337.8Z" style="fill:#fff"></path><path d="M34,338.8l-5.19,3h0c-2.76-8.12-5.59-11.38-9.11-16.72-3.21-4.86-6.93-7.87-8.91-11.29-1.75-3-3.07-6.82-.47-9.12,4.15-3.67,9.56.21,13.28,4.4C26.77,312.69,33.24,322.32,34,338.8Z" style="fill:#457B9D"></path><path d="M34,338.8l-5.19,3h0c-2.76-8.12-5.59-11.38-9.11-16.72-3.21-4.86-6.93-7.87-8.91-11.29-1.75-3-3.07-6.82-.47-9.12,4.15-3.67,9.56.21,13.28,4.4C26.77,312.69,33.24,322.32,34,338.8Z" style="fill:#fff;opacity:0.30000000000000004"></path><path d="M31.82,340l-.75.44c-2.18-12.84-10.91-27.71-16.33-31.22a.41.41,0,0,1,.45-.69C20.8,312.2,29.51,327,31.82,340Z" style="fill:#fff"></path></g></g><g id="freepik--Shadows--inject-19"><ellipse id="freepik--Shadow--inject-19" cx="68.1" cy="357.82" rx="51.13" ry="29.52" style="fill:#e0e0e0"></ellipse><ellipse id="freepik--shadow--inject-19" cx="223.97" cy="387.75" rx="46.89" ry="27.07" style="fill:#e0e0e0"></ellipse><path id="freepik--shadow--inject-19" d="M477,332.06l-68.81-39.72a7.77,7.77,0,0,0-7,0l-81.68,47.15c-1.93,1.12-1.94,2.95,0,4.08l9.38,5.46-8.89,5.13c-1.94,1.12-1.94,2.95,0,4.07l42.22,24.59a7.77,7.77,0,0,0,7,0l8.89-5.13,9.89,5.75a7.75,7.75,0,0,0,7,0l82-47.35C478.91,335,478.91,333.18,477,332.06Z" style="fill:#e0e0e0"></path><g id="freepik--shadow--inject-19"><path d="M331.82,453l-.34,0-8.44-.7a3.36,3.36,0,0,1-2.33-1.22,3.42,3.42,0,0,1-.74-2.56l.38-3.13a33.65,33.65,0,0,1-3.59-1.27,2.79,2.79,0,0,0-.93-.14,1.59,1.59,0,0,0-.51.07l-6.57,2.23a4.2,4.2,0,0,1-1.35.22,4.9,4.9,0,0,1-3.08-1l-4.3-3.53a2.84,2.84,0,0,1,.51-4.85l5.06-2.69a14,14,0,0,1-.52-1.45.68.68,0,0,0-.28-.35l-7.29-1.1a3.2,3.2,0,0,1-2.25-1.45,3.31,3.31,0,0,1-.33-2.7l1.17-3.81a4.06,4.06,0,0,1,3.73-2.8l7.81.15a2.13,2.13,0,0,0,1.06-.53,19.81,19.81,0,0,1,1.62-1.54L307.68,416a2.89,2.89,0,0,1,1-4.77l6.76-2.9a4.77,4.77,0,0,1,1.77-.35,4.83,4.83,0,0,1,2.68.73l4.54,2.95a2.42,2.42,0,0,0,1.08.24l.22,0a45.52,45.52,0,0,1,4.56-.68,1.23,1.23,0,0,0,.65-.44l1.69-3.36a4.37,4.37,0,0,1,3.72-2.31h.34l8.44.7a3.33,3.33,0,0,1,2.32,1.23,3.38,3.38,0,0,1,.74,2.56l-.38,3.12a36.21,36.21,0,0,1,3.6,1.27,2.45,2.45,0,0,0,.92.14,1.68,1.68,0,0,0,.51-.06l6.57-2.24a4.54,4.54,0,0,1,1.35-.22,4.9,4.9,0,0,1,3.08,1l4.31,3.54a2.9,2.9,0,0,1,1.11,2.55,3,3,0,0,1-1.62,2.3l-5.07,2.69a11.43,11.43,0,0,1,.52,1.45.73.73,0,0,0,.28.35l7.29,1.09a3.2,3.2,0,0,1,2.25,1.45,3.26,3.26,0,0,1,.33,2.71l-1.17,3.81a4,4,0,0,1-3.72,2.79l-7.82-.14a2,2,0,0,0-1.06.53,19.65,19.65,0,0,1-1.61,1.53l2.63,2.78a2.91,2.91,0,0,1-1,4.78l-6.76,2.89a4.76,4.76,0,0,1-1.76.35,4.94,4.94,0,0,1-2.69-.72l-4.54-3a2.31,2.31,0,0,0-1.08-.23.71.71,0,0,0-.21,0c-1.48.29-3,.52-4.56.67a1.21,1.21,0,0,0-.66.45l-1.68,3.35A4.38,4.38,0,0,1,331.82,453Zm2.6-31.47a23.16,23.16,0,0,0-8.77,1.75c-3.29,1.41-5.44,3.52-5.74,5.64-.27,1.91,1,3.41,2.14,4.33,2.59,2.14,7,3.38,11.69,3.33a22.93,22.93,0,0,0,8.77-1.74c3.29-1.41,5.44-3.52,5.74-5.64.27-1.91-1-3.41-2.13-4.34C343.52,422.68,339.15,421.43,334.42,421.48Z" style="fill:#e0e0e0"></path></g><g id="freepik--shadow--inject-19"><path d="M404.44,428.74h-.29l-5.82-.49a2.94,2.94,0,0,1-2.05-1.08,3,3,0,0,1-.65-2.25l.2-1.62c-.7-.22-1.38-.47-2-.74a1.87,1.87,0,0,0-.39,0h-.16l-4.51,1.54a3.77,3.77,0,0,1-1.13.19,4,4,0,0,1-2.54-.85l-3-2.44a2.62,2.62,0,0,1-1-2.32,2.66,2.66,0,0,1,1.46-2.09l3-1.59a3.38,3.38,0,0,1-.11-.34l-4.75-.71a2.85,2.85,0,0,1-2.3-3.69l.81-2.63a3.43,3.43,0,0,1,3.17-2.38l5.41.1s.19-.11.25-.17c.21-.22.43-.44.65-.65l-1.35-1.43a2.66,2.66,0,0,1-.72-2.4,2.7,2.7,0,0,1,1.63-1.93l4.65-2a4.14,4.14,0,0,1,1.47-.29,4.07,4.07,0,0,1,2.21.6l3.13,2a1.37,1.37,0,0,0,.38.06c1.06-.21,2.13-.37,3.2-.48h0v0l1.13-2.24a3.69,3.69,0,0,1,3.13-2h.3l5.81.49a3,3,0,0,1,2.06,1.08,3,3,0,0,1,.64,2.25l-.19,1.62c.7.22,1.37.47,2,.74a1.74,1.74,0,0,0,.38,0h.17l4.51-1.54a3.48,3.48,0,0,1,1.13-.18,4,4,0,0,1,2.54.84l3,2.44a2.61,2.61,0,0,1-.46,4.41l-3,1.59c0,.11.07.22.11.34l4.75.71a2.85,2.85,0,0,1,2.3,3.69l-.81,2.63a3.43,3.43,0,0,1-3.18,2.38l-5.4-.09a1.85,1.85,0,0,0-.26.16c-.2.22-.42.44-.65.65l1.36,1.43a2.64,2.64,0,0,1-.91,4.33l-4.66,2a3.84,3.84,0,0,1-1.46.29,4,4,0,0,1-2.21-.6l-3.13-2a1.56,1.56,0,0,0-.39-.06c-1.05.21-2.11.37-3.19.48h0s0,0,0,0l-1.12,2.24A3.69,3.69,0,0,1,404.44,428.74Zm4.27-4.22Zm-2.47-17.47a15.22,15.22,0,0,0-5.8,1.15c-2.06.88-3.39,2.15-3.57,3.38a2.82,2.82,0,0,0,1.24,2.4c1.68,1.38,4.54,2.18,7.64,2.15a15.18,15.18,0,0,0,5.8-1.15c2.06-.88,3.4-2.15,3.57-3.38a2.77,2.77,0,0,0-1.24-2.4C412.21,407.82,409.35,407,406.24,407.05Zm-3-8.39h0Z" style="fill:#e0e0e0"></path></g><polygon id="freepik--shadow--inject-19" points="374.77 251.78 313.56 216.38 94.3 342.98 133.91 365.89 74.96 399.93 108.2 419.12 305.36 305.29 293.74 298.59 374.77 251.78" style="fill:#e0e0e0"></polygon></g><g id="freepik--Gears--inject-19"><g id="freepik--Gear--inject-19"><path d="M367.26,410.1a1,1,0,0,1-.61.86l-5.42,2.88a1.52,1.52,0,0,0-.63,2,9.75,9.75,0,0,1,.55,1.47,2.44,2.44,0,0,0,1.79,1.7l1.37.21,2.33-1.24a1,1,0,0,0,.6-.89h0Zm-42.45,3c-6.32,2.71-8.54,7.49-5.78,11.42a12.87,12.87,0,0,1,5.77-4.36c7.32-3.14,17.37-2.31,22.44,1.86a9.93,9.93,0,0,1,1.73,1.79c1.94-2.88,1.47-6.2-1.72-8.83C342.18,410.83,332.13,410,324.81,413.12Zm46.57,8.3a1.22,1.22,0,0,1-.07.41l-1.17,3.82a2.13,2.13,0,0,1-1.95,1.43l-7.72-.15a2.87,2.87,0,0,0-1.2.28,4,4,0,0,0-1.3.86,19.19,19.19,0,0,1-1.84,1.72,1.33,1.33,0,0,0-.19,2l2.67,2.82a2.61,2.61,0,0,1,.66-.35h0a3.16,3.16,0,0,1,1.19-.26l7.73.14a2.15,2.15,0,0,0,1.95-1.44l1.16-3.81a1.31,1.31,0,0,0,.06-.43h0Zm-62.74-8.8h0a1.1,1.1,0,0,0,.32.76l.4.42a3.68,3.68,0,0,0,.63-.51,20.43,20.43,0,0,1,1.85-1.72,1.32,1.32,0,0,0,.19-2L309,406.33a1,1,0,0,1-.32-.6Zm50.7,23.16a1,1,0,0,1-.71.93l-6.75,2.89a3.09,3.09,0,0,1-1.77.12,2.37,2.37,0,0,1-.88-.33l-4.54-3a4.14,4.14,0,0,0-2.72-.49c-1.44.29-2.91.5-4.37.65a2.9,2.9,0,0,0-1.47.65,2.59,2.59,0,0,0-.72.84l-1.68,3.36a2.42,2.42,0,0,1-1.24,1.09,2.14,2.14,0,0,1-.95.16l-8.43-.71a1.46,1.46,0,0,1-1.32-1.64l.4-3.26a1.82,1.82,0,0,0-1.26-1.9,33.89,33.89,0,0,1-3.52-1.23,4.54,4.54,0,0,0-2.8-.13l-.07,0-6.49,2.21a3,3,0,0,1-1.65,0,2.48,2.48,0,0,1-.95-.46l-4.3-3.54a1,1,0,0,1-.42-.73l0,7a1.09,1.09,0,0,0,.43.75l4.3,3.55a2.82,2.82,0,0,0,1.8.56,1.2,1.2,0,0,0,.38,0h.06a2,2,0,0,0,.35-.09l6.5-2.21.08,0a4.51,4.51,0,0,1,2.79.13,36.2,36.2,0,0,0,3.51,1.23,1.73,1.73,0,0,1,.88.6v4.77A1.44,1.44,0,0,0,323.1,449l8.43.7a2.27,2.27,0,0,0,1-.16,2.5,2.5,0,0,0,.55-.31,1.33,1.33,0,0,0,.26-.21s0,0,0,0a1.29,1.29,0,0,0,.19-.21,2.2,2.2,0,0,0,.17-.25l.05-.08,1.68-3.36a1.26,1.26,0,0,1,.19-.28,1.3,1.3,0,0,1,.15-.2,2.68,2.68,0,0,1,.38-.37,3,3,0,0,1,1.47-.65A42.59,42.59,0,0,0,342,443a4.19,4.19,0,0,1,2.73.49l4.54,2.95a2.42,2.42,0,0,0,.87.32h0l.22,0a3.55,3.55,0,0,0,1,0,1.89,1.89,0,0,0,.23-.05,1.42,1.42,0,0,0,.29-.1l6.76-2.9a1.15,1.15,0,0,0,.58-.49.93.93,0,0,0,.12-.43ZM297.7,421.21a1.25,1.25,0,0,1-1.1-1.22v7.07h0a1.23,1.23,0,0,0,1.08,1.21l6,.9,3.09-1.64a1.53,1.53,0,0,0,.62-2,9.37,9.37,0,0,1-.55-1.47,2.49,2.49,0,0,0-1.79-1.71Z" style="fill:#e6e6e6"></path><path d="M367.26,410.1a1,1,0,0,1-.61.86l-5.42,2.88a1.52,1.52,0,0,0-.63,2,9.75,9.75,0,0,1,.55,1.47,2.44,2.44,0,0,0,1.79,1.7l1.37.21,2.33-1.24a1,1,0,0,0,.6-.89h0Zm-42.45,3c-6.32,2.71-8.54,7.49-5.78,11.42a12.87,12.87,0,0,1,5.77-4.36c7.32-3.14,17.37-2.31,22.44,1.86a9.93,9.93,0,0,1,1.73,1.79c1.94-2.88,1.47-6.2-1.72-8.83C342.18,410.83,332.13,410,324.81,413.12Zm46.57,8.3a1.22,1.22,0,0,1-.07.41l-1.17,3.82a2.13,2.13,0,0,1-1.95,1.43l-7.72-.15a2.87,2.87,0,0,0-1.2.28,4,4,0,0,0-1.3.86,19.19,19.19,0,0,1-1.84,1.72,1.33,1.33,0,0,0-.19,2l2.67,2.82a2.61,2.61,0,0,1,.66-.35h0a3.16,3.16,0,0,1,1.19-.26l7.73.14a2.15,2.15,0,0,0,1.95-1.44l1.16-3.81a1.31,1.31,0,0,0,.06-.43h0Zm-62.74-8.8h0a1.1,1.1,0,0,0,.32.76l.4.42a3.68,3.68,0,0,0,.63-.51,20.43,20.43,0,0,1,1.85-1.72,1.32,1.32,0,0,0,.19-2L309,406.33a1,1,0,0,1-.32-.6Zm50.7,23.16a1,1,0,0,1-.71.93l-6.75,2.89a3.09,3.09,0,0,1-1.77.12,2.37,2.37,0,0,1-.88-.33l-4.54-3a4.14,4.14,0,0,0-2.72-.49c-1.44.29-2.91.5-4.37.65a2.9,2.9,0,0,0-1.47.65,2.59,2.59,0,0,0-.72.84l-1.68,3.36a2.42,2.42,0,0,1-1.24,1.09,2.14,2.14,0,0,1-.95.16l-8.43-.71a1.46,1.46,0,0,1-1.32-1.64l.4-3.26a1.82,1.82,0,0,0-1.26-1.9,33.89,33.89,0,0,1-3.52-1.23,4.54,4.54,0,0,0-2.8-.13l-.07,0-6.49,2.21a3,3,0,0,1-1.65,0,2.48,2.48,0,0,1-.95-.46l-4.3-3.54a1,1,0,0,1-.42-.73l0,7a1.09,1.09,0,0,0,.43.75l4.3,3.55a2.82,2.82,0,0,0,1.8.56,1.2,1.2,0,0,0,.38,0h.06a2,2,0,0,0,.35-.09l6.5-2.21.08,0a4.51,4.51,0,0,1,2.79.13,36.2,36.2,0,0,0,3.51,1.23,1.73,1.73,0,0,1,.88.6v4.77A1.44,1.44,0,0,0,323.1,449l8.43.7a2.27,2.27,0,0,0,1-.16,2.5,2.5,0,0,0,.55-.31,1.33,1.33,0,0,0,.26-.21s0,0,0,0a1.29,1.29,0,0,0,.19-.21,2.2,2.2,0,0,0,.17-.25l.05-.08,1.68-3.36a1.26,1.26,0,0,1,.19-.28,1.3,1.3,0,0,1,.15-.2,2.68,2.68,0,0,1,.38-.37,3,3,0,0,1,1.47-.65A42.59,42.59,0,0,0,342,443a4.19,4.19,0,0,1,2.73.49l4.54,2.95a2.42,2.42,0,0,0,.87.32h0l.22,0a3.55,3.55,0,0,0,1,0,1.89,1.89,0,0,0,.23-.05,1.42,1.42,0,0,0,.29-.1l6.76-2.9a1.15,1.15,0,0,0,.58-.49.93.93,0,0,0,.12-.43ZM297.7,421.21a1.25,1.25,0,0,1-1.1-1.22v7.07h0a1.23,1.23,0,0,0,1.08,1.21l6,.9,3.09-1.64a1.53,1.53,0,0,0,.62-2,9.37,9.37,0,0,1-.55-1.47,2.49,2.49,0,0,0-1.79-1.71Z" style="opacity:0.1"></path><path d="M314.54,433.85l-6.49,2.21a3,3,0,0,1-1.65,0v7a3.06,3.06,0,0,0,.85.12,1.2,1.2,0,0,0,.38,0h.06a2,2,0,0,0,.35-.09l6.5-2.21Z" style="fill:#e0e0e0"></path><path d="M336.13,437.24a2.59,2.59,0,0,0-.72.84l-1.68,3.36a2.42,2.42,0,0,1-1.24,1.09v7a2.5,2.5,0,0,0,.55-.31,1.33,1.33,0,0,0,.26-.21s0,0,0,0a1.29,1.29,0,0,0,.19-.21,2.2,2.2,0,0,0,.17-.25l.05-.08,1.68-3.36a1.26,1.26,0,0,1,.19-.28,1.3,1.3,0,0,1,.15-.2,4.17,4.17,0,0,1,.38-.34v-7.07Z" style="fill:#e0e0e0"></path><path d="M367.27,410.1a1,1,0,0,1-.62.86l-5.43,2.88a1.54,1.54,0,0,0-.62,2,9.42,9.42,0,0,1,.56,1.47A2.43,2.43,0,0,0,363,419l1.36.2,2.32-1.23a1,1,0,0,0,.62-.89h0Z" style="fill:#e0e0e0"></path><path d="M371.38,421.42a1.22,1.22,0,0,1-.07.41l-1.17,3.82a2.13,2.13,0,0,1-1.95,1.43l-7.72-.15a2.87,2.87,0,0,0-1.2.28v7a3.16,3.16,0,0,1,1.19-.26l7.73.14a2.15,2.15,0,0,0,1.95-1.44l1.16-3.81a1.31,1.31,0,0,0,.06-.43h0Z" style="fill:#e0e0e0"></path><path d="M359.34,435.78a1,1,0,0,1-.71.93l-6.75,2.89a3.09,3.09,0,0,1-1.77.12v7l.22,0a3.55,3.55,0,0,0,1,0,1.89,1.89,0,0,0,.23-.05,1.42,1.42,0,0,0,.29-.1l6.76-2.9a1.15,1.15,0,0,0,.58-.49.93.93,0,0,0,.12-.43Z" style="fill:#e0e0e0"></path><path d="M359.94,405.3l-6.57,2.23a4.51,4.51,0,0,1-2.79-.12,31.71,31.71,0,0,0-3.52-1.23,1.83,1.83,0,0,1-1.26-1.91l.39-3.26a1.45,1.45,0,0,0-1.31-1.64l-8.44-.7a2.42,2.42,0,0,0-2.18,1.24l-1.69,3.36a3,3,0,0,1-2.18,1.5,42.81,42.81,0,0,0-4.38.65,4.21,4.21,0,0,1-2.72-.49l-4.54-3a3.13,3.13,0,0,0-2.64-.22l-6.76,2.9a1,1,0,0,0-.37,1.68l3.06,3.24a1.32,1.32,0,0,1-.19,2,20.37,20.37,0,0,0-1.84,1.72,3.83,3.83,0,0,1-2.5,1.13l-7.72-.14a2.12,2.12,0,0,0-2,1.44l-1.17,3.8a1.26,1.26,0,0,0,1,1.69l7.34,1.11a2.46,2.46,0,0,1,1.79,1.7,11,11,0,0,0,.55,1.47,1.52,1.52,0,0,1-.62,2l-5.42,2.88a.93.93,0,0,0-.19,1.66l4.31,3.54a3,3,0,0,0,2.58.46l6.57-2.24a4.54,4.54,0,0,1,2.8.13,33.89,33.89,0,0,0,3.52,1.23,1.82,1.82,0,0,1,1.26,1.91l-.39,3.25a1.44,1.44,0,0,0,1.31,1.64l8.44.71a2.42,2.42,0,0,0,2.18-1.25l1.68-3.36a3,3,0,0,1,2.19-1.49c1.47-.15,2.93-.36,4.37-.65a4.2,4.2,0,0,1,2.72.49l4.54,3a3.15,3.15,0,0,0,2.65.21l6.75-2.89A1,1,0,0,0,359,435l-3.06-3.23a1.33,1.33,0,0,1,.19-2,19.1,19.1,0,0,0,1.85-1.71,3.78,3.78,0,0,1,2.5-1.13l7.71.14a2.14,2.14,0,0,0,1.95-1.44l1.17-3.81a1.26,1.26,0,0,0-1-1.68L363,419a2.44,2.44,0,0,1-1.79-1.7,10.09,10.09,0,0,0-.56-1.47,1.52,1.52,0,0,1,.62-2l5.42-2.88a.93.93,0,0,0,.19-1.66l-4.3-3.54A3,3,0,0,0,359.94,405.3ZM347.25,415c5.07,4.17,3.25,10.09-4.07,13.23s-17.37,2.3-22.45-1.87-3.25-10.09,4.08-13.23S342.18,410.83,347.25,415Z" style="fill:#f5f5f5"></path><path d="M336.29,399.49h.08l8.44.7a.64.64,0,0,1,.42.22.69.69,0,0,1,.14.5l-.39,3.26a2.64,2.64,0,0,0,1.85,2.8,32.86,32.86,0,0,1,3.43,1.2,5.23,5.23,0,0,0,2,.35,4.11,4.11,0,0,0,1.37-.21l6.57-2.23a1.67,1.67,0,0,1,.49-.08,2.25,2.25,0,0,1,1.3.39l4.31,3.54a.49.49,0,0,1,.13.15.41.41,0,0,1-.18.15l-5.42,2.88a2.35,2.35,0,0,0-1,3.11,8.49,8.49,0,0,1,.51,1.35,3.26,3.26,0,0,0,2.46,2.28l7.34,1.11a.42.42,0,0,1,.33.2.49.49,0,0,1,0,.43l-1.17,3.81a1.3,1.3,0,0,1-1.14.85h0l-7.72-.14h-.08a4.68,4.68,0,0,0-3,1.39,18.56,18.56,0,0,1-1.77,1.64,2.24,2.24,0,0,0-.86,1.61,2.13,2.13,0,0,0,.59,1.61l3.06,3.23c.09.1.12.17.11.2s-.07.1-.2.16l-6.76,2.89a1.87,1.87,0,0,1-.71.13,2.14,2.14,0,0,1-1.16-.28l-4.54-2.95a4.94,4.94,0,0,0-2.61-.68,3.26,3.26,0,0,0-.72.07c-1.39.28-2.84.49-4.29.64a3.86,3.86,0,0,0-2.85,1.94L333,441.07a1.65,1.65,0,0,1-1.29.8h-.09l-8.43-.7a.6.6,0,0,1-.43-.22.62.62,0,0,1-.13-.5l.39-3.26a2.65,2.65,0,0,0-1.85-2.79,32.07,32.07,0,0,1-3.43-1.21,5.52,5.52,0,0,0-2-.35,4.57,4.57,0,0,0-1.36.21l-6.57,2.24a1.83,1.83,0,0,1-.5.07A2.14,2.14,0,0,1,306,435l-4.31-3.54a.54.54,0,0,1-.12-.14s.05-.08.18-.15l5.42-2.88a2.34,2.34,0,0,0,1-3.11,8.87,8.87,0,0,1-.51-1.35,3.28,3.28,0,0,0-2.46-2.29l-7.34-1.11a.46.46,0,0,1-.33-.19.53.53,0,0,1,0-.43l1.17-3.81a1.31,1.31,0,0,1,1.15-.85h0l7.71.14h.08a4.67,4.67,0,0,0,3-1.4,17.45,17.45,0,0,1,1.77-1.63,2.28,2.28,0,0,0,.86-1.62,2.14,2.14,0,0,0-.6-1.6l-3.06-3.23a.38.38,0,0,1-.11-.2.39.39,0,0,1,.21-.16l6.75-2.9a2.11,2.11,0,0,1,.72-.13,2.3,2.3,0,0,1,1.15.28l4.54,3a4.94,4.94,0,0,0,2.61.68,4.21,4.21,0,0,0,.73-.07,42.17,42.17,0,0,1,4.29-.64,3.85,3.85,0,0,0,2.84-1.95l1.69-3.35a1.59,1.59,0,0,1,1.29-.8M333.68,431a25.82,25.82,0,0,0,9.82-2c4.25-1.82,6.94-4.66,7.38-7.78.36-2.48-.75-4.91-3.11-6.85-3.12-2.57-8-4-13.47-4a25.86,25.86,0,0,0-9.82,2c-4.24,1.82-6.94,4.65-7.38,7.78-.35,2.48.75,4.91,3.11,6.85,3.13,2.57,8,4,13.47,3.95m2.6-32.29a2.45,2.45,0,0,0-2,1.25l-1.69,3.36a3,3,0,0,1-2.18,1.5,42.81,42.81,0,0,0-4.38.65,3.36,3.36,0,0,1-.57.05,4.19,4.19,0,0,1-2.15-.54l-4.54-3a2.93,2.93,0,0,0-1.61-.41,2.82,2.82,0,0,0-1,.19l-6.76,2.9a1,1,0,0,0-.37,1.68l3.06,3.24a1.32,1.32,0,0,1-.19,2,20.37,20.37,0,0,0-1.84,1.72,3.88,3.88,0,0,1-2.45,1.13h-.05l-7.72-.14h0a2.14,2.14,0,0,0-1.91,1.44l-1.17,3.8a1.26,1.26,0,0,0,1,1.69l7.34,1.11a2.46,2.46,0,0,1,1.79,1.7,11,11,0,0,0,.55,1.47,1.52,1.52,0,0,1-.62,2l-5.42,2.88a.93.93,0,0,0-.19,1.66l4.31,3.54a3,3,0,0,0,1.83.58,2.23,2.23,0,0,0,.75-.12l6.57-2.24a3.81,3.81,0,0,1,1.11-.16,4.47,4.47,0,0,1,1.69.29,33.89,33.89,0,0,0,3.52,1.23,1.82,1.82,0,0,1,1.26,1.91l-.39,3.25a1.44,1.44,0,0,0,1.31,1.64l8.44.71h.15a2.46,2.46,0,0,0,2-1.25l1.68-3.36a3,3,0,0,1,2.19-1.49c1.47-.15,2.93-.36,4.37-.65a3.43,3.43,0,0,1,.57-.06,4.26,4.26,0,0,1,2.15.55l4.54,3a3.14,3.14,0,0,0,1.62.41,2.82,2.82,0,0,0,1-.2l6.75-2.89A1,1,0,0,0,359,435l-3.06-3.23a1.33,1.33,0,0,1,.19-2,19.1,19.1,0,0,0,1.85-1.71,3.81,3.81,0,0,1,2.44-1.13h.06l7.71.14h.05a2.13,2.13,0,0,0,1.9-1.44l1.17-3.81a1.26,1.26,0,0,0-1-1.68L363,419a2.44,2.44,0,0,1-1.79-1.7,10.09,10.09,0,0,0-.56-1.47,1.52,1.52,0,0,1,.62-2l5.42-2.88a.93.93,0,0,0,.19-1.66l-4.3-3.54a3,3,0,0,0-1.84-.58,2.27,2.27,0,0,0-.75.12l-6.57,2.23a3.8,3.8,0,0,1-1.11.17,4.58,4.58,0,0,1-1.68-.29,31.71,31.71,0,0,0-3.52-1.23,1.83,1.83,0,0,1-1.26-1.91l.39-3.26a1.45,1.45,0,0,0-1.31-1.64l-8.44-.7Zm-2.61,31.47c-5,.05-9.87-1.25-12.94-3.77-5.07-4.17-3.25-10.09,4.08-13.23a25.08,25.08,0,0,1,9.5-1.9c5-.05,9.88,1.25,12.94,3.77,5.07,4.17,3.25,10.09-4.07,13.23a25.29,25.29,0,0,1-9.51,1.9Z" style="fill:#ebebeb"></path></g><g id="freepik--gear--inject-19"><path d="M428.87,398.67a.71.71,0,0,1-.42.6l-3.74,2a1.05,1.05,0,0,0-.43,1.4,9,9,0,0,1,.38,1,1.69,1.69,0,0,0,1.23,1.18l.94.14,1.61-.85a.7.7,0,0,0,.41-.62h0Zm-29.26,2.09c-4.36,1.87-5.89,5.16-4,7.87a8.94,8.94,0,0,1,4-3c5-2.16,12-1.59,15.47,1.29a6.81,6.81,0,0,1,1.19,1.23c1.34-2,1-4.27-1.19-6.09C411.58,399.18,404.65,398.6,399.61,400.76Zm32.1,5.72a1,1,0,0,1,0,.28l-.81,2.63a1.47,1.47,0,0,1-1.34,1l-5.32-.1a2,2,0,0,0-.83.19,2.71,2.71,0,0,0-.89.59,14.84,14.84,0,0,1-1.28,1.19.93.93,0,0,0-.13,1.38l1.84,1.94a2,2,0,0,1,.46-.24h0a2.18,2.18,0,0,1,.82-.18l5.33.1a1.48,1.48,0,0,0,1.34-1l.8-2.63a.79.79,0,0,0,.05-.3h0Zm-43.25-6.07h0a.75.75,0,0,0,.22.53l.27.29a2.33,2.33,0,0,0,.44-.35,12.24,12.24,0,0,1,1.28-1.19.92.92,0,0,0,.13-1.38l-2.11-2.23a.73.73,0,0,1-.22-.41Zm35,16a.72.72,0,0,1-.49.64l-4.65,2a2.09,2.09,0,0,1-1.22.08,1.58,1.58,0,0,1-.61-.23l-3.13-2a2.84,2.84,0,0,0-1.87-.34c-1,.19-2,.34-3,.44a2.08,2.08,0,0,0-1,.45,1.77,1.77,0,0,0-.49.58l-1.17,2.32a1.65,1.65,0,0,1-.85.75,1.51,1.51,0,0,1-.65.11l-5.82-.49a1,1,0,0,1-.9-1.13l.27-2.25a1.25,1.25,0,0,0-.87-1.31,22.24,22.24,0,0,1-2.42-.85,3.18,3.18,0,0,0-1.93-.08l-.05,0-4.48,1.52a2.06,2.06,0,0,1-1.13,0,1.88,1.88,0,0,1-.65-.32l-3-2.44a.73.73,0,0,1-.29-.5v4.83a.75.75,0,0,0,.3.53l3,2.44a2,2,0,0,0,1.24.39,1.15,1.15,0,0,0,.26,0h0a1,1,0,0,0,.25-.06l4.47-1.53.06,0a3.15,3.15,0,0,1,1.92.09,25.53,25.53,0,0,0,2.42.85,1.28,1.28,0,0,1,.61.41v3.3a1,1,0,0,0,.91,1l5.81.48a1.4,1.4,0,0,0,.66-.11,2,2,0,0,0,.38-.21,1.22,1.22,0,0,0,.17-.15h0a.93.93,0,0,0,.13-.15l.12-.17,0-.06,1.16-2.31a.8.8,0,0,1,.13-.19.61.61,0,0,1,.1-.14,2.06,2.06,0,0,1,.26-.25,2,2,0,0,1,1-.45,30.33,30.33,0,0,0,3-.45,2.93,2.93,0,0,1,1.88.34l3.13,2a1.78,1.78,0,0,0,.6.22h0l.15,0a2.41,2.41,0,0,0,.71,0l.16,0a.76.76,0,0,0,.2-.06l4.66-2a.8.8,0,0,0,.4-.34.6.6,0,0,0,.08-.29Zm-42.49-10.05a.85.85,0,0,1-.75-.84v4.87h0a.84.84,0,0,0,.75.83l4.12.63,2.13-1.14a1.05,1.05,0,0,0,.43-1.4,6.57,6.57,0,0,1-.39-1,1.7,1.7,0,0,0-1.23-1.18Z" style="fill:#e6e6e6"></path><path d="M428.87,398.67a.71.71,0,0,1-.42.6l-3.74,2a1.05,1.05,0,0,0-.43,1.4,9,9,0,0,1,.38,1,1.69,1.69,0,0,0,1.23,1.18l.94.14,1.61-.85a.7.7,0,0,0,.41-.62h0Zm-29.26,2.09c-4.36,1.87-5.89,5.16-4,7.87a8.94,8.94,0,0,1,4-3c5-2.16,12-1.59,15.47,1.29a6.81,6.81,0,0,1,1.19,1.23c1.34-2,1-4.27-1.19-6.09C411.58,399.18,404.65,398.6,399.61,400.76Zm32.1,5.72a1,1,0,0,1,0,.28l-.81,2.63a1.47,1.47,0,0,1-1.34,1l-5.32-.1a2,2,0,0,0-.83.19,2.71,2.71,0,0,0-.89.59,14.84,14.84,0,0,1-1.28,1.19.93.93,0,0,0-.13,1.38l1.84,1.94a2,2,0,0,1,.46-.24h0a2.18,2.18,0,0,1,.82-.18l5.33.1a1.48,1.48,0,0,0,1.34-1l.8-2.63a.79.79,0,0,0,.05-.3h0Zm-43.25-6.07h0a.75.75,0,0,0,.22.53l.27.29a2.33,2.33,0,0,0,.44-.35,12.24,12.24,0,0,1,1.28-1.19.92.92,0,0,0,.13-1.38l-2.11-2.23a.73.73,0,0,1-.22-.41Zm35,16a.72.72,0,0,1-.49.64l-4.65,2a2.09,2.09,0,0,1-1.22.08,1.58,1.58,0,0,1-.61-.23l-3.13-2a2.84,2.84,0,0,0-1.87-.34c-1,.19-2,.34-3,.44a2.08,2.08,0,0,0-1,.45,1.77,1.77,0,0,0-.49.58l-1.17,2.32a1.65,1.65,0,0,1-.85.75,1.51,1.51,0,0,1-.65.11l-5.82-.49a1,1,0,0,1-.9-1.13l.27-2.25a1.25,1.25,0,0,0-.87-1.31,22.24,22.24,0,0,1-2.42-.85,3.18,3.18,0,0,0-1.93-.08l-.05,0-4.48,1.52a2.06,2.06,0,0,1-1.13,0,1.88,1.88,0,0,1-.65-.32l-3-2.44a.73.73,0,0,1-.29-.5v4.83a.75.75,0,0,0,.3.53l3,2.44a2,2,0,0,0,1.24.39,1.15,1.15,0,0,0,.26,0h0a1,1,0,0,0,.25-.06l4.47-1.53.06,0a3.15,3.15,0,0,1,1.92.09,25.53,25.53,0,0,0,2.42.85,1.28,1.28,0,0,1,.61.41v3.3a1,1,0,0,0,.91,1l5.81.48a1.4,1.4,0,0,0,.66-.11,2,2,0,0,0,.38-.21,1.22,1.22,0,0,0,.17-.15h0a.93.93,0,0,0,.13-.15l.12-.17,0-.06,1.16-2.31a.8.8,0,0,1,.13-.19.61.61,0,0,1,.1-.14,2.06,2.06,0,0,1,.26-.25,2,2,0,0,1,1-.45,30.33,30.33,0,0,0,3-.45,2.93,2.93,0,0,1,1.88.34l3.13,2a1.78,1.78,0,0,0,.6.22h0l.15,0a2.41,2.41,0,0,0,.71,0l.16,0a.76.76,0,0,0,.2-.06l4.66-2a.8.8,0,0,0,.4-.34.6.6,0,0,0,.08-.29Zm-42.49-10.05a.85.85,0,0,1-.75-.84v4.87h0a.84.84,0,0,0,.75.83l4.12.63,2.13-1.14a1.05,1.05,0,0,0,.43-1.4,6.57,6.57,0,0,1-.39-1,1.7,1.7,0,0,0-1.23-1.18Z" style="opacity:0.1"></path><path d="M392.53,415.05l-4.48,1.52a2.06,2.06,0,0,1-1.13,0v4.85a2.39,2.39,0,0,0,.59.08,1.15,1.15,0,0,0,.26,0h0a1,1,0,0,0,.25-.06l4.47-1.53Z" style="fill:#e0e0e0"></path><path d="M407.41,417.38a1.77,1.77,0,0,0-.49.58l-1.17,2.32a1.65,1.65,0,0,1-.85.75v4.85a2,2,0,0,0,.38-.21,1.22,1.22,0,0,0,.17-.15h0a.93.93,0,0,0,.13-.15l.12-.17,0-.06,1.16-2.31a.8.8,0,0,1,.13-.19l.1-.14.26-.24h0Z" style="fill:#e0e0e0"></path><path d="M428.87,398.68a.71.71,0,0,1-.43.59l-3.73,2a1.05,1.05,0,0,0-.43,1.4,6.62,6.62,0,0,1,.38,1,1.69,1.69,0,0,0,1.24,1.17l.93.14,1.61-.85a.72.72,0,0,0,.42-.61h0Z" style="fill:#e0e0e0"></path><path d="M431.71,406.48a1,1,0,0,1,0,.28l-.81,2.63a1.47,1.47,0,0,1-1.34,1l-5.32-.1a2,2,0,0,0-.83.19v4.85a2.18,2.18,0,0,1,.82-.18l5.33.1a1.48,1.48,0,0,0,1.34-1l.8-2.63a.79.79,0,0,0,.05-.3h0Z" style="fill:#e0e0e0"></path><path d="M423.41,416.38a.72.72,0,0,1-.49.64l-4.65,2a2.09,2.09,0,0,1-1.22.08v4.85l.15,0a2.41,2.41,0,0,0,.71,0l.16,0a.76.76,0,0,0,.2-.06l4.66-2a.8.8,0,0,0,.4-.34.6.6,0,0,0,.08-.29Z" style="fill:#e0e0e0"></path><path d="M423.82,395.37l-4.53,1.54a3.15,3.15,0,0,1-1.92-.09,24.78,24.78,0,0,0-2.43-.85,1.25,1.25,0,0,1-.87-1.31l.27-2.25a1,1,0,0,0-.9-1.13l-5.82-.48a1.64,1.64,0,0,0-1.5.86L405,394a2.11,2.11,0,0,1-1.51,1,30.33,30.33,0,0,0-3,.45,2.93,2.93,0,0,1-1.88-.34l-3.13-2a2.18,2.18,0,0,0-1.82-.15l-4.66,2a.68.68,0,0,0-.25,1.16l2.11,2.23a.92.92,0,0,1-.13,1.38,14.66,14.66,0,0,0-1.28,1.18,2.59,2.59,0,0,1-1.72.78l-5.31-.09a1.46,1.46,0,0,0-1.35,1l-.81,2.62a.87.87,0,0,0,.71,1.16l5.06.77a1.67,1.67,0,0,1,1.23,1.17,6.57,6.57,0,0,0,.39,1,1.05,1.05,0,0,1-.43,1.4l-3.74,2a.64.64,0,0,0-.13,1.14l3,2.44a2.09,2.09,0,0,0,1.78.32l4.53-1.54a3.11,3.11,0,0,1,1.93.08,22.24,22.24,0,0,0,2.42.85,1.25,1.25,0,0,1,.87,1.32l-.27,2.24a1,1,0,0,0,.91,1.13l5.81.49a1.68,1.68,0,0,0,1.5-.86l1.16-2.32a2.13,2.13,0,0,1,1.51-1c1-.1,2-.25,3-.44a2.88,2.88,0,0,1,1.87.33l3.13,2a2.15,2.15,0,0,0,1.82.15l4.66-2a.68.68,0,0,0,.25-1.17l-2.11-2.22a.92.92,0,0,1,.14-1.39,13.12,13.12,0,0,0,1.27-1.18,2.66,2.66,0,0,1,1.72-.78l5.32.1a1.46,1.46,0,0,0,1.34-1l.81-2.63a.88.88,0,0,0-.71-1.16l-5.06-.76a1.69,1.69,0,0,1-1.23-1.18,8.3,8.3,0,0,0-.38-1,1.05,1.05,0,0,1,.43-1.4l3.73-2a.65.65,0,0,0,.13-1.15l-3-2.44A2,2,0,0,0,423.82,395.37Zm-8.74,6.68c3.49,2.88,2.24,7-2.81,9.12s-12,1.59-15.47-1.29-2.24-6.95,2.81-9.12S411.58,399.18,415.08,402.05Z" style="fill:#f5f5f5"></path><path d="M407.52,391.71h0l5.81.48.06,0a.13.13,0,0,1,0,.08l-.27,2.25a2.15,2.15,0,0,0,1.52,2.3,20.62,20.62,0,0,1,2.33.82,4,4,0,0,0,1.52.26,3.36,3.36,0,0,0,1-.16l4.53-1.54a.77.77,0,0,1,.23,0,1.12,1.12,0,0,1,.68.19l2.7,2.22-3.45,1.84a2,2,0,0,0-.83,2.59,5.86,5.86,0,0,1,.33.88,2.58,2.58,0,0,0,2,1.82l5,.76-.81,2.62a.55.55,0,0,1-.45.34l-5.32-.09h-.07a3.58,3.58,0,0,0-2.34,1.07,12.48,12.48,0,0,1-1.18,1.09,1.94,1.94,0,0,0-.72,1.36,1.78,1.78,0,0,0,.5,1.36l1.92,2-4.41,1.89a.92.92,0,0,1-.36.06,1.15,1.15,0,0,1-.61-.13l-3.13-2a3.85,3.85,0,0,0-2-.53,4.58,4.58,0,0,0-.56.06,27.93,27.93,0,0,1-2.93.43,3,3,0,0,0-2.23,1.53l-1.16,2.32a.81.81,0,0,1-.61.36h0l-5.82-.49a.06.06,0,0,1-.05,0,.12.12,0,0,1,0-.09l.27-2.25a2.17,2.17,0,0,0-1.52-2.29,23.53,23.53,0,0,1-2.33-.82,3.87,3.87,0,0,0-1.53-.27,3.66,3.66,0,0,0-1,.16l-4.53,1.54a.52.52,0,0,1-.23,0,1.23,1.23,0,0,1-.68-.19l-2.71-2.23,3.46-1.83a2,2,0,0,0,.82-2.59,7.87,7.87,0,0,1-.33-.88,2.58,2.58,0,0,0-2-1.83l-5-.76.8-2.61a.59.59,0,0,1,.46-.35l5.32.1h.06a3.56,3.56,0,0,0,2.34-1.07,11.48,11.48,0,0,1,1.19-1.1,1.91,1.91,0,0,0,.71-1.35,1.77,1.77,0,0,0-.5-1.37l-1.91-2,4.41-1.89a1.11,1.11,0,0,1,.36-.06,1.17,1.17,0,0,1,.6.14l3.13,2a3.76,3.76,0,0,0,2,.52,2.62,2.62,0,0,0,.57-.06c.95-.19,1.93-.33,2.92-.43a3,3,0,0,0,2.24-1.53l1.16-2.31a.78.78,0,0,1,.58-.36m-1.8,21.68a18,18,0,0,0,6.91-1.38c3-1.3,5-3.35,5.29-5.63a5.48,5.48,0,0,0-2.26-5c-2.22-1.83-5.69-2.85-9.51-2.81a18.33,18.33,0,0,0-6.9,1.38c-3,1.31-5,3.36-5.3,5.63a5.51,5.51,0,0,0,2.27,5c2.22,1.82,5.68,2.84,9.5,2.8m1.79-22.6a1.7,1.7,0,0,0-1.39.87L405,394a2.11,2.11,0,0,1-1.51,1,30.33,30.33,0,0,0-3,.45,2.46,2.46,0,0,1-.4,0,3,3,0,0,1-1.48-.38l-3.13-2a2,2,0,0,0-1.11-.28,2,2,0,0,0-.71.13l-4.66,2a.68.68,0,0,0-.25,1.16l2.11,2.23a.92.92,0,0,1-.13,1.38,14.66,14.66,0,0,0-1.28,1.18,2.59,2.59,0,0,1-1.68.78h0l-5.31-.09h0a1.46,1.46,0,0,0-1.31,1l-.81,2.62a.87.87,0,0,0,.71,1.16l5.06.77a1.67,1.67,0,0,1,1.23,1.17,6.57,6.57,0,0,0,.39,1,1.05,1.05,0,0,1-.43,1.4l-3.74,2a.64.64,0,0,0-.13,1.14l3,2.44a2,2,0,0,0,1.27.4,1.65,1.65,0,0,0,.51-.08l4.53-1.54a2.58,2.58,0,0,1,.76-.12,3.26,3.26,0,0,1,1.17.2,22.24,22.24,0,0,0,2.42.85,1.25,1.25,0,0,1,.87,1.32l-.27,2.24a1,1,0,0,0,.91,1.13l5.81.49h.11a1.68,1.68,0,0,0,1.39-.86l1.16-2.32a2.13,2.13,0,0,1,1.51-1c1-.1,2-.25,3-.44a1.61,1.61,0,0,1,.39,0,2.85,2.85,0,0,1,1.48.37l3.13,2a2.12,2.12,0,0,0,1.12.29,1.94,1.94,0,0,0,.7-.14l4.66-2a.68.68,0,0,0,.25-1.17l-2.11-2.22a.92.92,0,0,1,.14-1.39,13.12,13.12,0,0,0,1.27-1.18,2.71,2.71,0,0,1,1.68-.78h0l5.32.1h0a1.47,1.47,0,0,0,1.31-1l.81-2.63a.88.88,0,0,0-.71-1.16l-5.06-.76a1.69,1.69,0,0,1-1.23-1.18,8.3,8.3,0,0,0-.38-1,1.05,1.05,0,0,1,.43-1.4l3.73-2a.65.65,0,0,0,.13-1.15l-3-2.44a2.1,2.1,0,0,0-1.26-.4,1.77,1.77,0,0,0-.52.09l-4.53,1.54a2.49,2.49,0,0,1-.76.11,3.2,3.2,0,0,1-1.16-.2,24.78,24.78,0,0,0-2.43-.85,1.25,1.25,0,0,1-.87-1.31l.27-2.25a1,1,0,0,0-.9-1.13l-5.82-.48Zm-1.79,21.69c-3.45,0-6.81-.86-8.92-2.6-3.5-2.87-2.24-6.95,2.81-9.12a17.51,17.51,0,0,1,6.55-1.31c3.44,0,6.8.87,8.92,2.6,3.49,2.88,2.24,7-2.81,9.12a17.2,17.2,0,0,1-6.55,1.31Z" style="fill:#ebebeb"></path></g></g><g id="freepik--Target--inject-19"><g id="freepik--target--inject-19"><g id="freepik--target--inject-19"><path d="M395.07,93.17c-5.6-3.24-13.34-2.78-21.9,2.16-17.11,9.88-31,33.89-31,53.65,0,9.91,3.49,16.86,9.14,20.08,1.46.83,7.39,4.41,8.87,5.27,5.61,3.24,13.35,2.78,21.9-2.16,17.1-9.88,31-33.9,31-53.65,0-9.87-3.47-16.8-9.07-20" style="fill:#457B9D"></path><path d="M342.2,149h0c0,9.91,3.49,16.86,9.14,20.08,1.46.83,7.39,4.41,8.87,5.27,5.6,3.24,13.34,2.78,21.9-2.16Z" style="opacity:0.65"></path><path d="M346.72,127.76A57.42,57.42,0,0,0,342.2,149l39.91,23.19h0a57.5,57.5,0,0,0,16.11-14.52Z" style="opacity:0.55"></path><path d="M398.22,157.65c8.91-11.43,14.86-26.19,14.86-39.13,0-9.87-3.47-16.8-9.07-20l-8.94-5.31c-5.6-3.24-13.34-2.78-21.9,2.16-11.21,6.47-21,19-26.45,32.43Z" style="opacity:0.4"></path><path d="M382.11,100.64c-17.11,9.88-31,33.89-31,53.65s13.87,27.75,31,17.88,31-33.9,31-53.65S399.19,90.76,382.11,100.64Z" style="fill:#457B9D"></path><path d="M382.11,100.64c-17.11,9.88-31,33.89-31,53.65s13.87,27.75,31,17.88,31-33.9,31-53.65S399.19,90.76,382.11,100.64Z" style="opacity:0.2"></path><path d="M382.11,109.57C369.27,117,358.87,135,358.87,149.82s10.41,20.82,23.24,13.41S405.34,137.8,405.34,123,394.94,102.16,382.11,109.57Z" style="fill:#fafafa"></path><path d="M382.11,117.71c-8.95,5.16-16.19,17.72-16.19,28s7.25,14.51,16.19,9.35,16.19-17.72,16.19-28S391.05,112.54,382.11,117.71Z" style="fill:#457B9D"></path><path d="M382.11,117.71c-8.95,5.16-16.19,17.72-16.19,28s7.25,14.51,16.19,9.35,16.19-17.72,16.19-28S391.05,112.54,382.11,117.71Z" style="opacity:0.2"></path><path d="M382.11,126.05c-4.95,2.86-9,9.81-9,15.53s4,8,9,5.17,9-9.81,9-15.52S387.06,123.2,382.11,126.05Z" style="fill:#fafafa"></path><path d="M382.11,132a8.33,8.33,0,0,0-3.78,6.54c0,2.42,1.69,3.39,3.78,2.19a8.36,8.36,0,0,0,3.78-6.55C385.89,131.81,384.2,130.83,382.11,132Z" style="fill:#455a64"></path></g><g id="freepik--Arrow--inject-19"><path d="M429.44,164.13s.56,7,3.81,8.92,5-3.82,2.91-5Z" style="fill:#457B9D"></path><path d="M429.44,164.13s6.38-3,9.63-1.16-.8,6.26-2.91,5Z" style="fill:#457B9D"></path><path d="M429.44,164.13s6.38-3,9.63-1.16-.8,6.26-2.91,5Z" style="fill:#fff;opacity:0.5"></path><polygon points="389.54 142.09 437.47 169.64 435.84 166.6 390.19 140.35 389.54 142.09" style="fill:#37474f"></polygon><path d="M436.35,166.22a2.72,2.72,0,1,0,3.71,1A2.72,2.72,0,0,0,436.35,166.22Z" style="fill:#263238"></path><path d="M390.88,141.79c1.58,2.07-1.27,5.66-1.27,5.66l-7.41-10.68Z" style="fill:#457B9D"></path><path d="M390.88,141.79c1.58,2.07-1.27,5.66-1.27,5.66l-7.41-10.68Z" style="fill:#457B9D"></path><path d="M395.15,137.85s-1.68,4.26-4.27,3.94l-8.68-5Z" style="fill:#457B9D"></path><path d="M395.15,137.85s-1.68,4.26-4.27,3.94l-8.68-5Z" style="fill:#fff;opacity:0.5"></path></g></g></g><g id="freepik--speech-bubble--inject-19"><g id="freepik--speech-bubble--inject-19"><g id="freepik--speech-bubble--inject-19"><path d="M206.79,256.48l-2.65-5,2.14-6.16v-3.76l-6.53,3.76v3.77l2.81,4.86a.32.32,0,0,0,.19.17h0Z" style="fill:#457B9D"></path><path d="M206.79,256.48l-2.65-5,2.14-6.16v-3.76l-6.53,3.76v3.77l2.81,4.86a.32.32,0,0,0,.19.17h0Z" style="opacity:0.2"></path><path d="M222.38,211.6a4.34,4.34,0,0,0-1.95-3.39l-1.6-.92a4.34,4.34,0,0,0-3.91,0l-24.44,14.14a4.32,4.32,0,0,0-2,3.39v26.89a4.34,4.34,0,0,0,2,3.39l1.59.92a4.36,4.36,0,0,0,3.92,0l7.86-4.54,2.8,4.85a.42.42,0,0,0,.76-.07l3-8.55,10.06-5.83a4.31,4.31,0,0,0,1.95-3.39Z" style="fill:#457B9D"></path><path d="M188.52,251.71a4.34,4.34,0,0,0,2,3.39l1.59.92a4.41,4.41,0,0,0,3.58.16c-.92.34-1.62-.18-1.62-1.29V228a4,4,0,0,1,.57-1.93l-5.5-3.18a3.92,3.92,0,0,0-.58,1.93Z" style="opacity:0.2"></path><path d="M222.32,211.05c-.23-.83-1-1.1-1.89-.58L196,224.61a3.82,3.82,0,0,0-1.38,1.46l-5.51-3.18a4,4,0,0,1,1.38-1.46l24.43-14.14a4.36,4.36,0,0,1,3.92,0l1.6.93A4.3,4.3,0,0,1,222.32,211.05Z" style="fill:#fff;opacity:0.30000000000000004"></path></g><path id="freepik--Check--inject-19" d="M215.51,219.43a2.14,2.14,0,0,0-2.79,1.14l-8.05,19.15-1.92-1.86a2.13,2.13,0,0,0-3,3l4.16,4a2.11,2.11,0,0,0,1.48.6,2.11,2.11,0,0,0,2-1.3l9.25-22A2.13,2.13,0,0,0,215.51,219.43Z" style="fill:#fff"></path></g></g><g id="freepik--light-bulb--inject-19"><g id="freepik--Idea--inject-19"><g id="freepik--Light--inject-19"><circle cx="120.24" cy="103.86" r="25.8" transform="translate(-19.62 28.46) rotate(-12.49)" style="fill:#457B9D;opacity:0.1"></circle><circle cx="120.24" cy="103.86" r="32.61" transform="translate(-18.74 26.86) rotate(-11.83)" style="fill:#457B9D;opacity:0.1"></circle><circle cx="120.24" cy="103.86" r="39.07" transform="translate(14.07 222.07) rotate(-88.89)" style="fill:#457B9D;opacity:0.1"></circle><path d="M118.91,82a.84.84,0,0,1-.9-.8l-.52-8.48a.86.86,0,0,1,1.71-.1l.51,8.48A.85.85,0,0,1,118.91,82Z" style="fill:#fff"></path><path d="M129.79,84.26a.84.84,0,0,1-.43-.09A.85.85,0,0,1,129,83l3.79-7.6a.86.86,0,0,1,1.15-.38.85.85,0,0,1,.38,1.14l-3.79,7.6A.86.86,0,0,1,129.79,84.26Z" style="fill:#fff"></path><path d="M138.09,91.66a.85.85,0,0,1-.52-1.56l7.08-4.69a.87.87,0,0,1,1.19.25.85.85,0,0,1-.25,1.18l-7.08,4.68A.84.84,0,0,1,138.09,91.66Z" style="fill:#fff"></path><path d="M150.05,101.71l-8.48.51a.85.85,0,0,1-.9-.8.86.86,0,0,1,.8-.91L150,100a.85.85,0,0,1,.9.8A.86.86,0,0,1,150.05,101.71Z" style="fill:#fff"></path><path d="M146.91,116.9a.8.8,0,0,1-.43-.09l-7.6-3.79a.85.85,0,1,1,.76-1.53l7.6,3.79a.86.86,0,0,1-.33,1.62Z" style="fill:#fff"></path><path d="M95.09,119.9a.85.85,0,0,1-.52-1.56l7.08-4.69a.87.87,0,0,1,1.19.25.85.85,0,0,1-.25,1.18l-7.08,4.68A.81.81,0,0,1,95.09,119.9Z" style="fill:#fff"></path><path d="M98.69,104.66l-8.48.52a.86.86,0,0,1-.1-1.71l8.48-.51a.85.85,0,1,1,.1,1.7Z" style="fill:#fff"></path><path d="M101,93.78a.84.84,0,0,1-.43-.09l-7.6-3.79a.86.86,0,1,1,.77-1.53l7.59,3.79a.86.86,0,0,1,.39,1.15A.88.88,0,0,1,101,93.78Z" style="fill:#fff"></path><path d="M108.35,85.48a.83.83,0,0,1-.76-.38L102.91,78a.85.85,0,1,1,1.42-.94L109,84.16a.84.84,0,0,1-.24,1.18A.73.73,0,0,1,108.35,85.48Z" style="fill:#fff"></path></g><g id="freepik--Bulb--inject-19"><g id="freepik--Socket--inject-19"><path d="M119.8,134.54c-1.31-.65-1.38-1.84-.16-2.65a5,5,0,0,1,4.58-.28c1.31.65,1.38,1.83.16,2.64A5.07,5.07,0,0,1,119.8,134.54Z" style="fill:#263238"></path><path d="M125.11,133.49l-.53,0a1.64,1.64,0,0,0-.71-.62,4.11,4.11,0,0,0-3.72.23,1.68,1.68,0,0,0-.64.71l-.52,0,.66.91h0a1.71,1.71,0,0,0,.63.49,4.11,4.11,0,0,0,3.72-.23,1.68,1.68,0,0,0,.56-.57h0Z" style="fill:#263238"></path><path d="M118.65,133.75c-1.93-1-2-2.71-.23-3.91a7.49,7.49,0,0,1,6.77-.4c1.93,1,2,2.71.24,3.9A7.48,7.48,0,0,1,118.65,133.75Z" style="fill:#455a64"></path><path d="M118.49,133.13c-2-1-2.12-2.82-.24-4.06a7.8,7.8,0,0,1,7-.42c2,1,2.11,2.82.24,4A7.77,7.77,0,0,1,118.49,133.13Z" style="fill:#37474f"></path><path d="M118.36,132.43c-2.06-1-2.17-2.89-.25-4.16a8,8,0,0,1,7.2-.43c2.06,1,2.17,2.88.25,4.15A8,8,0,0,1,118.36,132.43Z" style="fill:#455a64"></path><path d="M118.23,131.73c-2.11-1.06-2.23-3-.26-4.26a8.18,8.18,0,0,1,7.38-.45c2.11,1,2.22,3,.26,4.26A8.18,8.18,0,0,1,118.23,131.73Z" style="fill:#37474f"></path><path d="M118.1,131c-2.16-1.08-2.28-3-.27-4.37a8.37,8.37,0,0,1,7.56-.45c2.16,1.08,2.28,3,.26,4.36A8.38,8.38,0,0,1,118.1,131Z" style="fill:#455a64"></path><path d="M118,130.33c-2.21-1.11-2.33-3.11-.27-4.47a8.6,8.6,0,0,1,7.74-.47c2.21,1.11,2.33,3.11.27,4.47A8.59,8.59,0,0,1,118,130.33Z" style="fill:#37474f"></path></g><path d="M127.25,124.69a2.86,2.86,0,0,0-1.82-2.23,9,9,0,0,0-8.09.48,2.87,2.87,0,0,0-1.54,2.44l.12,2a2.85,2.85,0,0,0,1.82,2.23,9,9,0,0,0,8.09-.49,2.82,2.82,0,0,0,1.53-2.44C127.34,126.31,127.27,125,127.25,124.69Z" style="fill:#457B9D"></path><path d="M119.16,86A17.24,17.24,0,0,0,103,104.22c.83,13.66,12.24,15.25,12.57,20.75a3,3,0,0,0,1.89,2.32,9.27,9.27,0,0,0,8.39-.51,3,3,0,0,0,1.6-2.52h0c-.34-5.51,10.8-8.46,10-22.12A17.23,17.23,0,0,0,119.16,86Z" style="fill:#fff"></path><path d="M118.11,126.88c-2-1-2.11-2.81-.24-4a7.74,7.74,0,0,1,7-.42c2,1,2.12,2.81.25,4A7.76,7.76,0,0,1,118.11,126.88Z" style="fill:#f5f5f5"></path><path d="M125.93,125.77a3.91,3.91,0,0,1-.79.69,7.79,7.79,0,0,1-7,.43,3.69,3.69,0,0,1-.87-.6,3.72,3.72,0,0,1,.8-.69,7.74,7.74,0,0,1,7-.42A3.4,3.4,0,0,1,125.93,125.77Z" style="fill:#457B9D;opacity:0.25"></path><path d="M125.93,125.77a3.91,3.91,0,0,1-.79.69,7.79,7.79,0,0,1-7,.43,3.69,3.69,0,0,1-.87-.6,3.72,3.72,0,0,1,.8-.69,7.74,7.74,0,0,1,7-.42A3.4,3.4,0,0,1,125.93,125.77Z" style="fill:#ebebeb"></path><path d="M128.34,92.39a2.68,2.68,0,0,0-.58.39,2.55,2.55,0,0,0-.7,2.4c.35,1.65,2,2.59,3,3.83a15,15,0,0,1,2.53,4.55,8,8,0,0,0,.68,1.75,1.35,1.35,0,0,0,1.75.48,2.54,2.54,0,0,0,1-1.92,13.21,13.21,0,0,0-2.79-9.67C132.07,92.63,130.3,91.4,128.34,92.39Z" style="fill:#457B9D;opacity:0.1"></path><path d="M133,108a1.84,1.84,0,0,0,.27,1.53,1.11,1.11,0,0,0,1.53.26,1.8,1.8,0,0,0,.73-1.54,1.36,1.36,0,0,0-1.2-1.31A1.41,1.41,0,0,0,133,108Z" style="fill:#457B9D;opacity:0.1"></path><path d="M123.61,126.24h-.19c-.38-6.12-.25-10,.41-12.9a13,13,0,0,1,.71-2.2,10.59,10.59,0,0,1-4-2,10.43,10.43,0,0,1-3.71,2.5,11.48,11.48,0,0,1,1,2.1c1,2.82,1.6,6.64,2,12.76h-.2c-.37-6.1-1-9.9-2-12.7a11.18,11.18,0,0,0-1-2.1c-.19.07-.38.12-.57.17-2,.45-3.18-.06-3.64-.68a1.34,1.34,0,0,1,1.28-2.1c.88.07,2,.76,3,2.37a10.31,10.31,0,0,0,3.66-2.46,4,4,0,0,1-.61-.64,3.33,3.33,0,0,1-.72-3.3,1.38,1.38,0,0,1,2.46-.15,3.33,3.33,0,0,1-.32,3.36,4.39,4.39,0,0,1-.53.72,10.36,10.36,0,0,0,3.93,2c.81-1.71,1.85-2.53,2.72-2.72a1.34,1.34,0,0,1,1.4.46,1.3,1.3,0,0,1,.12,1.47c-.38.68-1.52,1.33-3.54,1.12a4.15,4.15,0,0,1-.58-.1,12.12,12.12,0,0,0-.71,2.2C123.37,116.29,123.25,120.14,123.61,126.24ZM124.83,111l.51.08c1.93.2,3-.39,3.35-1a1.11,1.11,0,0,0-.11-1.26,1.13,1.13,0,0,0-1.2-.38A4.26,4.26,0,0,0,124.83,111Zm-11.36-1.75a1.07,1.07,0,0,0-.9.53,1.1,1.1,0,0,0,0,1.26c.42.57,1.55,1,3.44.6.16,0,.33-.08.5-.14a4.28,4.28,0,0,0-2.84-2.25Zm6.81-4.85a1.15,1.15,0,0,0-1,.71,3.24,3.24,0,0,0,.7,3.1,4.65,4.65,0,0,0,.58.62,4.05,4.05,0,0,0,.51-.69,3.24,3.24,0,0,0,.32-3.16A1.16,1.16,0,0,0,120.28,104.41Z" style="fill:#455a64"></path></g></g></g><g id="freepik--Arrows--inject-19"><g id="freepik--arrow--inject-19"><polygon points="320.48 254.96 320.48 187.34 339.41 198.27 339.41 265.89 320.48 254.96" style="fill:#457B9D"></polygon><polygon points="320.48 254.96 320.48 187.34 339.41 198.27 339.41 265.89 320.48 254.96" style="opacity:0.15"></polygon><polygon points="86.86 365.94 86.85 398.58 105.78 409.51 105.78 376.87 86.86 365.94" style="fill:#457B9D"></polygon><g style="opacity:0.15"><polygon points="86.86 365.94 86.85 398.58 105.78 409.51 105.78 376.87 86.86 365.94"></polygon></g><path d="M339.41,215.76,192.63,300.54c-14.32,8.29-26.12,5.39-32.47-6.26a32.86,32.86,0,0,0,13.56-4.66l146.77-84.79Z" style="fill:#457B9D"></path><path d="M339.41,215.76,192.63,300.54c-14.32,8.29-26.12,5.39-32.47-6.26a32.86,32.86,0,0,0,13.56-4.66l146.77-84.79Z" style="fill:#fff;opacity:0.30000000000000004"></path><path d="M366.53,216.37l-27.12-18.1v17.49L192.63,300.54c-14.32,8.29-26.12,5.39-32.47-6.26h0a39,39,0,0,1-3.8-10.78,54.08,54.08,0,0,1-.22-20.25c6.81-39.4,48-89.37,88.32-90.5l26.35-27A36.29,36.29,0,0,0,252,140.65c-67.9,0-123.74,80.3-123.74,133.45,0,29.09,9.7,49.58,25,58.39h0c12.67,7.28,29.18,6.59,47.21-3.83L339.41,248.4v17.49Z" style="fill:#457B9D"></path><path d="M153.25,332.49l-18.91-10.93c-15.32-8.81-25-29.3-25-58.39,0-53.15,55.85-133.45,123.74-133.45a37.18,37.18,0,0,1,18.81,5.06l18.93,10.93A36.29,36.29,0,0,0,252,140.65c-67.9,0-123.74,80.3-123.74,133.45,0,29.09,9.7,49.58,25,58.39Z" style="fill:#457B9D"></path><path d="M153.25,332.49l-18.91-10.93c-15.32-8.81-25-29.3-25-58.39,0-53.15,55.85-133.45,123.74-133.45a37.18,37.18,0,0,1,18.81,5.06l18.93,10.93A36.29,36.29,0,0,0,252,140.65c-67.9,0-123.74,80.3-123.74,133.45,0,29.09,9.7,49.58,25,58.39Z" style="fill:#fff;opacity:0.30000000000000004"></path><path d="M86.85,365.93l109.69-63.32h0c1.2-.7,2.43-1.49,3.67-2.35,25-17.35,47-60.82,49.2-97.08.79-13-1.08-23.35-5-30.43h0l1.4,0h0c14.79-.27,24.1,15,22.49,41.38-2.2,36.26-24.23,79.72-49.2,97.08q-1.86,1.29-3.67,2.35h0L105.78,376.86Z" style="fill:#457B9D"></path><path d="M86.85,365.93l109.69-63.32h0c1.2-.7,2.43-1.49,3.67-2.35,25-17.35,47-60.82,49.2-97.08.79-13-1.08-23.35-5-30.43h0l1.4,0h0c14.79-.27,24.1,15,22.49,41.38-2.2,36.26-24.23,79.72-49.2,97.08q-1.86,1.29-3.67,2.35h0L105.78,376.86Z" style="fill:#fff;opacity:0.30000000000000004"></path><path d="M270.8,145.71l-26.36,27,1.4,0c14.79-.27,24.1,15,22.49,41.38-2.2,36.26-24.23,79.72-49.2,97.08q-1.86,1.29-3.67,2.35h0L105.78,376.86V409.5l117.35-67.75c39.85-23,72.16-84.74,72.16-137.88C295.29,175.09,285.82,154.66,270.8,145.71Z" style="fill:#457B9D"></path><path d="M200.21,300.26c24.36-18.36,41.3-53.78,47.25-83.25l1.18-6.88.77-6.95-.54,7-1,6.94c-5.27,29.65-22.52,65.64-47.7,83.17Z" style="fill:#457B9D"></path><path d="M223.13,341.75c38.6-24,63.65-73.79,70.48-117.77a143.94,143.94,0,0,0,1.68-20.11,145,145,0,0,1-1.23,20.18c-6.16,44.2-31.52,94.6-70.93,117.7Z" style="fill:#457B9D"></path><path d="M223.13,341.75c38.6-24,63.65-73.79,70.48-117.77a143.94,143.94,0,0,0,1.68-20.11,145,145,0,0,1-1.23,20.18c-6.16,44.2-31.52,94.6-70.93,117.7Z" style="opacity:0.15"></path></g><g id="freepik--arrow--inject-19"><path d="M295.81,46.25c-8-4.65-19.16-4-31.44,3.11-24.55,14.18-44.45,48.65-44.45,77a55.67,55.67,0,0,0,.29,5.74l15.94,9.2a54.68,54.68,0,0,1-.31-5.85c0-.89,0-1.8.07-2.71,1.06-24.61,16.38-53.08,36.36-68.82a65.22,65.22,0,0,1,8-5.48c12.28-7.09,23.4-7.76,31.44-3.12C306.85,52.52,300.7,49.07,295.81,46.25Z" style="fill:#263238"></path><path d="M308.5,92c-.49,8.19-3.32,17.26-7.65,25.81l-15.93-9.08c4.33-8.55,7.16-17.64,7.65-25.82A30,30,0,0,0,291.46,72a13.61,13.61,0,0,1,10,1.1C306.35,75.92,309.07,82.44,308.5,92Z" style="fill:#263238"></path><path d="M324.77,84.12c0-14.19-5-24.14-13-28.79s-19.17-4-31.44,3.11a65.77,65.77,0,0,0-8,5.49c-20,15.75-35.29,44.21-36.36,68.82,0,.91-.07,1.82-.07,2.71a54.16,54.16,0,0,0,.31,5.83,98.51,98.51,0,0,1,15.11-1.45,31.3,31.3,0,0,1-.72-9.55c1.14-19.15,15.06-43.24,31.06-53.8A30.52,30.52,0,0,1,291.46,72a13.59,13.59,0,0,1,10,1.1c4.87,2.82,7.58,9.34,7,18.92-.5,8.19-3.31,17.26-7.65,25.81l-4.13-7.16-10,38.75,26.42-10.35-4-6.87C318.71,117.27,324.77,99.76,324.77,84.12Z" style="fill:#455a64"></path><polygon points="296.72 110.67 280.79 101.59 270.76 140.34 286.69 149.42 296.72 110.67" style="fill:#37474f"></polygon></g></g><g id="freepik--Clock--inject-19"><g id="freepik--clock--inject-19"><g id="freepik--clock--inject-19"><path d="M154.11,380,144,374.16l0,0-.08,0h0c-4.91-2.78-11.67-2.35-19.13,1.95-15,8.67-27.18,29.75-27.18,47.09,0,8.61,3,14.68,7.87,17.54h0l.07.05,0,0,10.13,5.85,1.73-4.55a28.93,28.93,0,0,0,7.52-3.12c15-8.66,27.18-29.74,27.18-47.08a29.18,29.18,0,0,0-1-8Z" style="fill:#455a64"></path><path d="M97.8,418.9a40.78,40.78,0,0,0-.24,4.24c0,8.61,3,14.68,7.87,17.54h0l.07.05,0,0,10.13,5.85,1.73-4.55c.56-.14,1.14-.31,1.72-.49l2.57-8.87Z" style="fill:#263238"></path><ellipse cx="134.99" cy="413.36" rx="38.44" ry="22.2" transform="translate(-290.49 323.58) rotate(-60)" style="fill:#37474f"></ellipse><path d="M156,387.65c-3.82-6.1-11.22-7-19.79-2.51-14.18,7.49-25.65,27.36-25,43.38A21.44,21.44,0,0,0,114,439.07c3.82,6.1,11.22,7,19.79,2.51,14.18-7.49,25.65-27.36,25-43.39A21.54,21.54,0,0,0,156,387.65Z" style="fill:#263238"></path><path d="M131,440c-5.46,2.89-10.44,3.54-14.32,2.07a11.66,11.66,0,0,1-2.71-3,21.44,21.44,0,0,1-2.82-10.55c-.61-16,10.86-35.89,25-43.38,5.46-2.88,10.43-3.54,14.32-2.07a11.71,11.71,0,0,1,2.71,3h0a21.51,21.51,0,0,1,2.82,10.54C156.65,412.67,145.19,432.53,131,440Z" style="fill:#fafafa"></path><path d="M133.32,389.09a1.3,1.3,0,0,0-.57,1v2.95c0,.39.26.56.58.38a1.36,1.36,0,0,0,.57-1v-2.94C133.89,389.07,133.64,388.9,133.32,389.09Z" style="fill:#457B9D"></path><path d="M152.85,400.36a1.31,1.31,0,0,1-.62,1l-2.55,1.48c-.34.2-.61.06-.61-.31a1.32,1.32,0,0,1,.62-1l2.55-1.47C152.58,399.86,152.85,400,152.85,400.36Z" style="fill:#457B9D"></path><path d="M113.07,424.16a1.32,1.32,0,0,1,.62-1l2.55-1.48c.34-.19.61-.06.61.31a1.32,1.32,0,0,1-.62,1l-2.55,1.48C113.34,424.66,113.07,424.52,113.07,424.16Z" style="fill:#457B9D"></path><path d="M132.6,435.43a1.31,1.31,0,0,0,.58-1v-2.95c0-.39-.26-.56-.57-.37a1.31,1.31,0,0,0-.58,1v2.95C132,435.45,132.29,435.62,132.6,435.43Z" style="fill:#457B9D"></path></g><polygon points="134.47 414.42 146.03 412.35 135.6 412.35 134.47 414.42" style="fill:#457B9D"></polygon><path d="M135,396.52s1.33,12.39,1.75,15.26a2,2,0,0,1,.06.51A4.1,4.1,0,0,1,135,415.5a1.32,1.32,0,0,1-1.32.13l-1-.57a1.3,1.3,0,0,1-.55-1.21c-.17-3,.93-17.21.93-17.21l1-.7Z" style="fill:#37474f"></path><path d="M136.84,412.29A4.1,4.1,0,0,1,135,415.5c-1,.59-1.86.11-1.86-1.07-.17-3,.93-17.21.93-17.21l1-.7S136.84,411.1,136.84,412.29Z" style="fill:#455a64"></path><path d="M135.82,412.87a1.86,1.86,0,0,1-.83,1.46c-.47.26-.84.05-.84-.49a1.84,1.84,0,0,1,.84-1.45C135.45,412.12,135.82,412.34,135.82,412.87Z" style="fill:#263238"></path><rect x="147" y="411.92" width="3.01" height="0.25" transform="translate(-48.2 20.71) rotate(-6.87)" style="fill:#37474f"></rect><rect x="140.41" y="424.35" width="0.25" height="3.01" transform="translate(-156.02 89.47) rotate(-23.14)" style="fill:#37474f"></rect><rect x="125.37" y="397.26" width="0.25" height="3.01" transform="translate(-146.59 81.38) rotate(-23.14)" style="fill:#37474f"></rect><rect x="116.02" y="412.44" width="3.01" height="0.25" transform="translate(-48.48 17.01) rotate(-6.87)" style="fill:#37474f"></rect><rect x="148.73" y="392.87" width="4.03" height="0.25" transform="translate(-242.88 243.91) rotate(-48.27)" style="fill:#37474f"></rect><rect x="138.75" y="387.1" width="4.03" height="0.25" transform="translate(-271.08 399.19) rotate(-71.69)" style="fill:#37474f"></rect><rect x="123.13" y="437.2" width="4.03" height="0.25" transform="translate(-329.35 418.72) rotate(-71.69)" style="fill:#37474f"></rect><rect x="113.15" y="431.43" width="4.03" height="0.25" transform="translate(-283.57 230.26) rotate(-48.27)" style="fill:#37474f"></rect></g></g></svg>
